<svg width="23" height="26" viewBox="0 0 23 26" fill="none" xmlns="http://www.w3.org/2000/svg">
<path d="M17.3333 10.5273V14.494C17.3333 15.1474 17.3333 15.4741 17.2062 15.7237C17.0943 15.9432 16.9158 16.1217 16.6963 16.2335C16.4468 16.3607 16.1201 16.3607 15.4667 16.3607L1 16.3607M12.6667 16.3607V20.3273C12.6667 20.9807 12.6667 21.3074 12.5395 21.557C12.4277 21.7765 12.2492 21.955 12.0297 22.0669C11.7801 22.194 11.4534 22.194 10.8 22.194H1M1 1.77734L1 25.1107M1 10.5273L20.1333 10.5273C20.7867 10.5273 21.1134 10.5273 21.363 10.4002C21.5825 10.2883 21.761 10.1099 21.8728 9.89033C22 9.64077 22 9.31407 22 8.66068V6.56068C22 5.90728 22 5.58059 21.8728 5.33102C21.761 5.1115 21.5825 4.93302 21.363 4.82117C21.1134 4.69401 20.7867 4.69401 20.1333 4.69401L1 4.69401L1 10.5273Z" stroke="white" stroke-width="1.61538" stroke-linecap="round" stroke-linejoin="round"/>
</svg>
