<svg width="25" height="18" viewBox="0 0 25 18" fill="none" xmlns="http://www.w3.org/2000/svg">
<path d="M1.88107 0.588789C1.40898 0.743145 1.14146 0.908146 0.795257 1.26476C0.370374 1.69057 0.123836 2.20154 0.0451544 2.803C0.00843603 3.08509 -0.00730039 5.22479 0.00319056 9.24336L0.018927 15.2579L0.139573 15.6039C0.464792 16.5247 1.22539 17.2166 2.13285 17.4082C2.32694 17.4508 5.2644 17.4668 12.073 17.4668C20.4081 17.4668 21.7824 17.4562 22.0657 17.387C23.0413 17.1528 23.7914 16.4076 24.0432 15.4176C24.1586 14.9492 24.1638 3.03187 24.0432 2.5209C23.8491 1.69057 23.2406 0.972017 22.4433 0.636692L22.1548 0.514273L12.1622 0.503628C2.69936 0.492983 2.15384 0.498305 1.88107 0.588789ZM22.1548 1.67992C22.5063 1.84493 22.8892 2.28138 22.9941 2.63267C23.0466 2.80832 23.0728 3.12768 23.0728 3.53219V4.16026H12.052H1.02606L1.05229 3.44703C1.07327 2.80832 1.089 2.70719 1.22014 2.44106C1.388 2.09509 1.74469 1.75444 2.05417 1.63734C2.24825 1.57347 3.56487 1.5575 12.0835 1.5575L21.8926 1.55218L22.1548 1.67992ZM23.0623 11.0105L23.0466 15.2047L22.8997 15.5081C22.7318 15.8487 22.4801 16.0989 22.1339 16.2639L21.8926 16.3757H12.0835C4.05794 16.3757 2.23776 16.365 2.07515 16.3065C1.78665 16.2 1.34079 15.7582 1.19391 15.4336L1.06802 15.1515L1.05229 11.0584C1.04704 8.80158 1.05229 6.92802 1.06278 6.89076C1.08376 6.83221 3.05081 6.82157 12.0835 6.82157H23.0728L23.0623 11.0105Z" fill="#FF7315"/>
<rect y="6" width="24" height="11" rx="2" fill="#FF7315"/>
<rect x="4" y="8" width="6" height="2" fill="white"/>
<rect x="4" y="12" width="6" height="2" fill="white"/>
<rect x="14" y="8" width="6" height="2" fill="white"/>
<rect x="14" y="12" width="6" height="2" fill="white"/>
</svg>
