<svg width="20" height="21" viewBox="0 0 20 21" fill="none" xmlns="http://www.w3.org/2000/svg">
<path d="M10.8613 0.799093C10.2649 1.23494 8.47575 2.5425 6.88539 3.70043C5.30144 4.85837 3.94193 5.86018 3.87139 5.92523C3.74955 6.04883 3.78161 6.04883 5.39121 6.04883H7.03288L10.2906 4.7738C12.0861 4.07123 13.7791 3.4142 14.0484 3.30361L14.5422 3.11496L13.3943 1.5537C12.4901 0.33722 12.208 -0.00105264 12.0925 -0.00105264C12.0156 -0.00105264 11.4769 0.343726 10.8613 0.799093Z" fill="#2A5F25"/>
<path d="M12.3256 4.67622C10.4146 5.37879 8.83061 5.97727 8.80496 6.00329C8.77931 6.02931 10.5685 6.04883 12.7745 6.04883C14.9869 6.04883 16.7953 6.02281 16.7953 5.99679C16.7953 5.90571 15.8975 3.48576 15.8462 3.44673C15.8205 3.42071 14.2366 3.98016 12.3256 4.67622Z" fill="#2A5F25"/>
<path d="M0.755316 5.13844C0.460329 5.22951 0.261534 5.39865 0.139692 5.67837C0.0306748 5.93858 0.024262 6.3289 0.00502373 13.0944C-0.00780179 19.411 -0.00138903 20.2566 0.0883896 20.4258C0.300011 20.8421 -0.322027 20.8161 9.48949 20.8161H18.4096L18.6277 20.5949L18.8457 20.3737V18.5197V16.6657L17.7106 16.6397C16.582 16.6202 16.5628 16.6202 16.1395 16.412C14.7287 15.7355 14.2413 13.9596 15.1071 12.639C15.3764 12.2292 15.6906 11.9624 16.1972 11.7217C16.5499 11.5526 16.6269 11.5461 17.7106 11.5266L18.8457 11.5006V9.17819C18.8457 6.68018 18.8457 6.68669 18.5058 6.49153C18.3968 6.42648 16.5179 6.40045 9.82937 6.37443C0.671951 6.34191 1.08237 6.35492 1.08237 6.02315C1.08237 5.74993 1.18497 5.72391 2.17254 5.72391H3.1088L3.55128 5.39865L3.99376 5.07338L2.46111 5.07989C1.61463 5.07989 0.845095 5.10591 0.755316 5.13844Z" fill="#2A5F25"/>
<path d="M17.1479 5.21672C17.2953 5.70462 17.2569 5.69161 18.1995 5.72413C19.0332 5.75666 19.0524 5.75666 19.2063 5.93881L19.3603 6.12095V8.49537C19.3603 9.79642 19.3795 10.8633 19.4116 10.8633C19.4372 10.8633 19.5719 10.7917 19.713 10.7137L19.9695 10.564L19.9887 8.30021C20.0015 6.09493 20.0015 6.02338 19.8669 5.74365C19.7899 5.58102 19.6103 5.36635 19.4693 5.26226L19.2128 5.07361H18.1611H17.1094L17.1479 5.21672Z" fill="#2A5F25"/>
<path d="M19.3806 11.676L18.7906 12.1639H17.8287C16.668 12.1639 16.3666 12.2484 15.8857 12.7298C15.1161 13.4974 15.1225 14.6424 15.8985 15.4295C16.3859 15.9239 16.6552 16.002 17.8736 16.002H18.7971L19.3999 15.4945L20.0027 14.9936V13.0876C20.0027 12.0468 19.9962 11.1881 19.9834 11.1881C19.9706 11.1881 19.7013 11.4092 19.3806 11.676ZM17.6812 13.2437C18.0019 13.4324 18.1109 13.6536 18.1109 14.1024C18.1109 14.5057 18.1045 14.5253 17.8416 14.7725C17.5979 15.0001 17.5402 15.0262 17.2323 15.0262C16.6488 15.0262 16.2833 14.6619 16.2833 14.0829C16.2833 13.7186 16.4179 13.4584 16.7065 13.2632C16.9374 13.1136 17.4504 13.1006 17.6812 13.2437Z" fill="#2A5F25"/>
<path d="M19.6672 15.9107L19.3594 16.0668V17.8883C19.3594 19.8594 19.3594 19.8529 19.6928 19.5797C19.9814 19.352 20.0071 19.2024 19.9878 17.4264L19.9686 15.7546L19.6672 15.9107Z" fill="#2A5F25"/>
</svg>
