<svg width="32" height="23" viewBox="0 0 32 23" fill="none" xmlns="http://www.w3.org/2000/svg">
<g clip-path="url(#clip0_1185_7140)">
<path d="M0.843545 0.0857015C0.505615 0.179139 0.167686 0.531327 0.0761636 0.883514C0.0128019 1.10633 -0.00127851 3.55726 0.0128019 9.95414C0.0339225 19.7148 -0.00127849 18.9745 0.505615 19.3482C0.730902 19.5063 0.801303 19.5135 2.16006 19.5351L3.58218 19.5566L3.63146 19.3554C3.94123 17.9251 4.82125 16.7679 6.01809 16.2001C6.72211 15.8695 7.17972 15.7832 8.03158 15.8263C8.86936 15.8695 9.34106 16.0204 10.0451 16.4732C10.9251 17.041 11.6925 18.1335 11.9037 19.1398L11.9882 19.5566L14.6142 19.5351C17.1346 19.5135 17.2472 19.5063 17.4302 19.3626C17.5358 19.2835 17.6907 19.1254 17.7682 19.0176C17.916 18.8235 17.916 18.7804 17.9371 9.89664L17.9512 0.969764L17.7963 0.646327C17.6978 0.459452 17.5358 0.265389 17.388 0.179139C17.1416 0.035389 17.036 0.035389 9.11577 0.021014C3.96939 0.0138265 0.998429 0.035389 0.843545 0.0857015ZM13.8538 4.86539C14.3889 5.44039 14.4804 5.62008 14.3959 5.94351C14.3396 6.20226 8.29911 12.4051 7.96822 12.5488C7.83446 12.6135 7.66549 12.6351 7.58101 12.6063C7.41204 12.5488 3.81451 8.99101 3.68074 8.74664C3.63146 8.66039 3.59626 8.47351 3.58922 8.32258C3.58922 8.08539 3.64554 8.01351 4.13835 7.54633C4.82125 6.89226 5.04654 6.77008 5.34223 6.89945C5.46191 6.94976 5.56047 7.01445 5.56047 7.0432C5.56047 7.07195 6.06033 7.58226 6.67986 8.17883L7.79925 9.27133L10.214 6.82039C11.5446 5.46914 12.6992 4.3407 12.7767 4.30476C13.0864 4.1682 13.3258 4.29039 13.8538 4.86539Z" fill="#E46917"/>
<path d="M19.9792 4.95945C19.6483 5.06008 19.3808 5.30445 19.2611 5.60633C19.1625 5.86508 19.1484 6.56945 19.1484 12.2332C19.1484 18.5223 19.1484 18.5726 19.2963 18.8816C19.4512 19.2051 19.9088 19.5501 20.1904 19.5501C20.3101 19.5501 20.3523 19.4782 20.4157 19.1548C20.7114 17.6885 22.0279 16.3085 23.4852 15.9276C24.0343 15.7838 25.0481 15.7766 25.5902 15.9204C27.1109 16.3157 28.2584 17.5016 28.6316 19.0685L28.7442 19.5645L29.575 19.5357C30.4691 19.5141 30.6169 19.4566 30.9337 19.0182C31.0745 18.8241 31.0816 18.7235 31.1027 15.4029C31.1238 11.6079 31.1308 11.6654 30.6451 10.6663C30.3635 10.0913 27.8149 6.46883 27.1672 5.72852C26.421 4.88039 26.6392 4.92352 23.1613 4.90914C21.5139 4.90195 20.0848 4.92352 19.9792 4.95945ZM25.8225 7.41039C25.9915 7.46789 26.3013 7.85602 27.2728 9.23602C27.9487 10.1991 28.6316 11.1838 28.7935 11.4354C29.2863 12.2116 29.5468 12.147 25.907 12.147H22.7389V9.73914V7.33133H24.1751C25.0129 7.33133 25.6958 7.36008 25.8225 7.41039Z" fill="#E46917"/>
<path d="M7.24842 17.4006C6.15015 17.6234 5.24196 18.5937 5.05892 19.7581C4.77027 21.6125 6.5092 23.3303 8.29037 22.935C10.0786 22.5469 11.036 20.6494 10.2827 19.0034C9.88849 18.1481 9.15631 17.5659 8.24109 17.3934C7.81163 17.3144 7.69195 17.3144 7.24842 17.4006Z" fill="#E46917"/>
<path d="M24.0075 17.3998C22.5784 17.6873 21.5575 19.1751 21.818 20.6126C21.994 21.5757 22.5502 22.3088 23.4302 22.7329C23.8526 22.9341 23.9723 22.9629 24.5355 22.9629C25.0988 22.9629 25.2184 22.9341 25.6409 22.7329C26.2674 22.431 26.6969 22.0141 26.9926 21.4176C27.8233 19.7213 26.8447 17.752 24.9932 17.3926C24.5707 17.3135 24.4511 17.3135 24.0075 17.3998Z" fill="#E46917"/>
</g>
<defs>
<clipPath id="clip0_1185_7140">
<rect width="31.1176" height="23" fill="white"/>
</clipPath>
</defs>
</svg>
