<svg width="25" height="22" viewBox="0 0 25 22" fill="none" xmlns="http://www.w3.org/2000/svg">
<path d="M20.7906 1.04108C19.4331 1.37353 2.72489 5.95961 2.51998 6.06191C2.12725 6.24944 1.99065 6.59894 2.15286 7.01663L2.27239 7.33203L3.12616 7.30646C3.81771 7.28941 4.26167 7.20417 5.59354 6.85467C7.25839 6.4114 20.9528 2.68627 21.7383 2.46464L22.1737 2.33678L22.1054 1.9617C21.9517 1.12632 21.559 0.853542 20.7906 1.04108Z" fill="#872C2C"/>
<path d="M19.3353 6.17336C17.5083 6.67629 15.8947 7.12808 15.7495 7.1707C15.5788 7.22185 16.2191 7.26447 17.7559 7.29857C20.5221 7.35824 20.7441 7.41791 21.0941 8.1851C21.2392 8.49197 21.2563 8.79885 21.2563 11.4414C21.2563 13.0525 21.2905 14.3652 21.3332 14.3652C21.4783 14.3652 24.5006 13.5213 24.6714 13.4276C25.141 13.1804 25.1239 12.865 24.4921 10.5804C23.681 7.63954 23.0492 5.3124 23.0492 5.2783C23.0492 5.17601 22.3577 5.33797 19.3353 6.17336Z" fill="#872C2C"/>
<path d="M0.46133 8.05658C-0.0167798 8.24411 0.000295517 8.01396 0.000295517 14.4328C0.000295517 21.1073 -0.0338551 20.7493 0.632083 20.9198C1.11019 21.0391 19.415 21.0477 19.9272 20.9283C20.1065 20.8857 20.337 20.7749 20.4395 20.6726C20.6188 20.5021 20.6188 20.4595 20.6444 14.68C20.6614 10.665 20.6444 8.7641 20.5761 8.55099C20.3968 7.92871 21.0883 7.97134 10.3138 7.97986C4.99483 7.97986 0.555244 8.01396 0.46133 8.05658ZM9.98937 10.7673C10.3992 10.9719 10.5102 11.3043 10.2711 11.6197L10.0918 11.8584L10.2967 12.0374C10.5699 12.2761 10.5699 12.6853 10.2967 12.9581C10.1516 13.103 9.96375 13.1712 9.55395 13.2138C9.25513 13.2479 8.88801 13.2564 8.7514 13.2394L8.49527 13.2138L8.46966 11.9096L8.44405 10.6139H9.0673C9.49418 10.6139 9.78446 10.665 9.98937 10.7673ZM12.7214 11.8243C12.969 12.4978 13.191 13.0945 13.2166 13.1456C13.2422 13.2223 13.1654 13.2564 12.9861 13.2564C12.7556 13.2564 12.6958 13.2138 12.5848 12.9581C12.4653 12.6682 12.4482 12.6597 11.9872 12.6597C11.5347 12.6597 11.5176 12.6682 11.3895 12.9581C11.2871 13.2053 11.2273 13.2564 11.0053 13.2564C10.8261 13.2564 10.7492 13.2223 10.7834 13.1456C10.8004 13.0945 11.0224 12.4978 11.27 11.8243C11.7225 10.6139 11.7225 10.6139 11.9957 10.6139C12.2604 10.6139 12.2689 10.6224 12.7214 11.8243ZM14.6424 11.3555L15.1547 12.0886L15.1803 11.347L15.2059 10.6054L15.4791 10.6309L15.7523 10.6565V11.9351V13.2138L15.5218 13.2394C15.3254 13.2649 15.2315 13.1712 14.7534 12.4892L14.2155 11.705L14.1728 12.4637L14.1301 13.2138H13.874H13.6179L13.5923 12.0204C13.5837 11.3725 13.5923 10.7844 13.6093 10.7247C13.6349 10.665 13.763 10.6139 13.8911 10.6139C14.096 10.6139 14.207 10.7247 14.6424 11.3555ZM16.9049 11.185V11.7476L17.3488 11.185C17.7672 10.6565 17.8269 10.6139 18.1343 10.6139C18.5014 10.6139 18.5185 10.5798 17.9123 11.2873C17.733 11.4919 17.5879 11.6879 17.5879 11.7306C17.5879 11.7647 17.7757 12.0971 18.0148 12.4637C18.2453 12.8302 18.4417 13.1541 18.4417 13.1882C18.4417 13.2308 18.3136 13.2564 18.1514 13.2564C17.8952 13.2564 17.8269 13.2053 17.5025 12.7023C17.1695 12.1909 17.1269 12.1568 17.0244 12.3017C16.9646 12.3869 16.9049 12.6256 16.8878 12.8387C16.8622 13.1967 16.8451 13.2138 16.6061 13.2138H16.3499L16.3243 11.9096L16.2987 10.6139H16.6061H16.9049V11.185ZM4.78139 11.7561C4.78139 11.8158 4.64479 11.9863 4.48257 12.1483L4.18375 12.4381L3.88493 12.1397C3.47513 11.7391 3.50074 11.6538 4.03861 11.6197C4.58502 11.5857 4.78139 11.6283 4.78139 11.7561ZM6.1901 11.8329C6.25841 11.9351 6.31817 12.1397 6.31817 12.2932V12.5745H5.59247H4.86677V13.3843V14.1941H4.18375H3.50074V13.5548V12.9154H3.88493C4.20083 12.9154 4.26913 12.8899 4.26913 12.762C4.26913 12.6768 4.42281 12.4551 4.61064 12.2761C4.79846 12.0971 4.95214 11.884 4.95214 11.8073C4.95214 11.6027 4.97776 11.5942 5.54124 11.6197C5.95959 11.6453 6.08765 11.6879 6.1901 11.8329ZM3.41536 11.7902C3.41536 11.8755 3.56904 12.0971 3.75687 12.2761C3.9447 12.4551 4.09838 12.6427 4.09838 12.6768C4.09838 12.7109 3.96177 12.745 3.79956 12.745C3.63734 12.745 3.50074 12.7109 3.50074 12.6597C3.50074 12.6171 3.18485 12.5745 2.80065 12.5574L2.09202 12.5319L2.11764 12.2335C2.15179 11.7732 2.33962 11.6368 2.92018 11.6368C3.33852 11.6368 3.41536 11.6624 3.41536 11.7902ZM3.32999 13.1286V13.5121H2.68966H2.04934V13.1882C2.04934 13.0092 2.07495 12.8302 2.1091 12.8046C2.13471 12.7705 2.42499 12.745 2.74942 12.745H3.32999V13.1286ZM6.31817 13.0859V13.4354L5.70346 13.4099L5.08874 13.3843L5.09728 13.103C5.10582 12.9581 5.11436 12.8132 5.11436 12.7876C5.1229 12.762 5.3961 12.745 5.72053 12.745H6.31817V13.0859ZM6.31817 13.981V14.3646H5.72053C5.3961 14.3646 5.1229 14.339 5.11436 14.2964C5.11436 14.2623 5.09728 14.1259 5.08021 13.9895C5.06313 13.8531 5.06313 13.7082 5.08874 13.6656C5.11436 13.6315 5.3961 13.5974 5.72907 13.5974H6.31817V13.981ZM3.32999 14.0236V14.3731L2.71527 14.3475L2.09202 14.322L2.08349 14.0662C2.08349 13.9213 2.09202 13.7849 2.1091 13.7423C2.12617 13.7082 2.40792 13.6826 2.74089 13.6826H3.32999V14.0236ZM3.72272 14.876C3.50928 15.1062 3.32999 15.3534 3.32999 15.4301C3.32999 15.5239 3.23607 15.558 2.91164 15.558C2.36523 15.558 2.13471 15.379 2.1091 14.9187L2.09202 14.5777L2.75796 14.5692C3.12508 14.5606 3.44951 14.5351 3.47513 14.501C3.50928 14.4754 3.66295 14.4498 3.82517 14.4498H4.12399L3.72272 14.876ZM4.90945 14.5351C4.93507 14.5777 5.26804 14.6203 5.64369 14.6203H6.31817V14.8931C6.31817 15.3449 6.03643 15.558 5.44733 15.558C5.02898 15.558 4.95214 15.5324 4.95214 15.4046C4.95214 15.3193 4.79846 15.0977 4.61064 14.9187C4.42281 14.7397 4.26913 14.5521 4.26913 14.518C4.26913 14.4157 4.84969 14.4328 4.90945 14.5351ZM4.49965 15.0636C4.92653 15.4813 4.8753 15.558 4.18375 15.558C3.77394 15.558 3.58612 15.5239 3.58612 15.4557C3.58612 15.3534 4.08984 14.7908 4.17521 14.7908C4.20083 14.7908 4.34597 14.9101 4.49965 15.0636ZM13.0885 17.2373C13.0202 17.2629 12.9775 17.4419 12.9775 17.6976C12.9775 18.1494 12.9434 18.1238 13.6606 18.1579C13.8569 18.1664 13.874 18.2005 13.8996 18.5671L13.9252 18.9677H13.3703H12.8153L12.7897 18.1153C12.7726 17.4504 12.7897 17.2288 12.8922 17.135C12.9775 17.0412 13.0373 17.0327 13.1056 17.1009C13.1654 17.1691 13.1568 17.2117 13.0885 17.2373ZM3.32999 17.9448C3.32999 18.6267 3.3556 18.7972 3.44951 18.7972C3.53489 18.7972 3.58612 18.6864 3.60319 18.4818C3.64588 17.9789 3.84225 18.0215 3.84225 18.533V18.9677H3.2873C2.9714 18.9677 2.73235 18.9336 2.73235 18.8825C2.73235 18.8313 2.80919 18.7972 2.9031 18.7972C3.05678 18.7972 3.07386 18.7376 3.07386 18.0812C3.07386 17.4419 3.05678 17.3651 2.9031 17.3225C2.62136 17.2543 2.70674 17.0924 3.03117 17.0924H3.32999V17.9448ZM5.4644 17.6038V18.1153H4.99483H4.52526V18.4563V18.7972H4.95214C5.1912 18.7972 5.37903 18.8313 5.37903 18.8825C5.37903 18.9336 5.13997 18.9677 4.82408 18.9677H4.26913V18.4563V17.9448H4.78993H5.30219L5.27657 17.6209L5.25096 17.3055L4.79846 17.2799C4.19229 17.2458 4.32035 17.0924 4.96068 17.0924H5.4644V17.6038ZM7.17194 18.03V18.9677H6.65968C6.37793 18.9677 6.14742 18.9336 6.14742 18.8825C6.14742 18.8313 6.34378 18.7972 6.58284 18.7972H7.00972L6.98411 18.4733C6.95849 18.175 6.94142 18.1579 6.6426 18.1323C6.46331 18.1153 6.31817 18.0727 6.31817 18.03C6.31817 17.9874 6.46331 17.9448 6.6426 17.9278C6.93288 17.9022 6.95849 17.8766 6.98411 17.6209L7.00972 17.3481H6.58284C6.24987 17.3481 6.14742 17.314 6.14742 17.2202C6.14742 17.1179 6.25841 17.0924 6.65968 17.0924H7.17194V18.03ZM12.1238 17.2202C12.1238 17.3055 12.0299 17.3481 11.825 17.3481C11.5432 17.3481 11.5261 17.3651 11.5261 17.6464C11.5261 17.9363 11.5347 17.9448 11.8677 17.9448H12.2092V18.4563V18.9677H11.7994C11.3895 18.9677 10.9968 18.7887 11.1249 18.6608C11.159 18.6182 11.27 18.6353 11.3554 18.6949C11.4493 18.7546 11.6371 18.7972 11.7823 18.7972C12.0213 18.7972 12.0384 18.7802 12.0384 18.4563V18.1153H11.6969H11.3554V17.6038V17.0924H11.7396C12.0213 17.0924 12.1238 17.1265 12.1238 17.2202ZM15.6242 17.4589C15.6242 17.7573 15.573 17.8766 15.3681 18.0727C15.1717 18.2602 15.112 18.3966 15.112 18.6438C15.112 18.8228 15.0778 18.9677 15.0266 18.9677C14.9839 18.9677 14.9412 18.8058 14.9412 18.6012C14.9412 18.3199 14.9924 18.1835 15.1547 18.03C15.2998 17.8937 15.3681 17.7402 15.3681 17.5442C15.3681 17.2714 15.3596 17.2629 15.0266 17.2629C14.8388 17.2629 14.6851 17.297 14.6851 17.3481C14.6851 17.3907 14.6509 17.4333 14.5997 17.4333C14.557 17.4333 14.5143 17.3566 14.5143 17.2629C14.5143 17.1094 14.5741 17.0924 15.0693 17.0924H15.6242V17.4589ZM17.0756 17.5186C17.0756 17.8425 17.1098 17.9448 17.2037 17.9448C17.3061 17.9448 17.3318 18.0556 17.3318 18.4563V18.9677H16.7341H16.1365V18.4563C16.1365 18.0556 16.1621 17.9448 16.2646 17.9448C16.3585 17.9448 16.3926 17.8425 16.3926 17.5186V17.0924H16.7341H17.0756V17.5186ZM8.04278 17.6635C8.06839 18.1238 8.08547 18.1579 8.28183 18.1579C8.4782 18.1579 8.49527 18.1238 8.52089 17.7487C8.55504 17.2373 8.70872 17.2202 8.70872 17.7232C8.70872 17.9363 8.7514 18.1323 8.80263 18.1664C8.87093 18.2005 8.87093 18.2432 8.80263 18.3113C8.7514 18.3625 8.70872 18.533 8.70872 18.6864C8.70872 18.8399 8.67457 18.9677 8.62334 18.9677C8.58065 18.9677 8.53796 18.8313 8.53796 18.6694C8.53796 18.3795 8.52942 18.371 8.19646 18.371H7.85495V17.7743C7.85495 17.0583 8.00863 16.973 8.04278 17.6635Z" fill="#872C2C"/>
<path d="M9.05078 11.4158C9.05078 11.6971 9.07639 11.7227 9.28984 11.7227C9.60573 11.7227 9.84478 11.5436 9.81063 11.3305C9.78502 11.2027 9.69111 11.1601 9.40936 11.143L9.05078 11.1174V11.4158Z" fill="#872C2C"/>
<path d="M9.05078 12.4458C9.05078 12.7441 9.05078 12.7441 9.43498 12.7441C9.73379 12.7441 9.83625 12.7015 9.90455 12.5651C10.0497 12.3009 9.8704 12.1474 9.42644 12.1474C9.05078 12.1474 9.05078 12.1474 9.05078 12.4458Z" fill="#872C2C"/>
<path d="M11.8405 11.7561C11.7636 11.9863 11.6953 12.1823 11.6953 12.1909C11.6953 12.1994 11.8234 12.1994 11.9771 12.1909C12.2759 12.1738 12.2929 12.0971 12.088 11.5942L11.9856 11.3384L11.8405 11.7561Z" fill="#872C2C"/>
<path d="M12.9766 18.5838C12.9766 18.7713 13.0107 18.7969 13.3181 18.7969C13.6254 18.7969 13.6596 18.7713 13.6596 18.5838C13.6596 18.3877 13.6254 18.3707 13.3181 18.3707C13.0107 18.3707 12.9766 18.3877 12.9766 18.5838Z" fill="#872C2C"/>
<path d="M16.676 17.323C16.5137 17.3827 16.5308 17.9453 16.693 17.9453C16.787 17.9453 16.8211 17.8515 16.8211 17.6043C16.8211 17.4168 16.8126 17.2634 16.804 17.2719C16.787 17.2719 16.7272 17.2975 16.676 17.323Z" fill="#872C2C"/>
<path d="M16.3047 18.4559V18.7969H16.6889H17.0731V18.4559V18.1149H16.6889H16.3047V18.4559Z" fill="#872C2C"/>
</svg>
