<svg width="21" height="17" viewBox="0 0 21 17" fill="none" xmlns="http://www.w3.org/2000/svg">
<path d="M20.3389 4.42871V13.083C20.3252 13.0967 20.3149 13.1138 20.3081 13.1343C20.3013 13.1548 20.2979 13.1719 20.2979 13.1855C20.1611 14.1699 19.7305 14.9868 19.0059 15.6362C18.2812 16.2856 17.4268 16.6104 16.4424 16.6104C15.4033 16.624 14.3711 16.6309 13.3457 16.6309C12.3203 16.6309 11.2949 16.6309 10.2695 16.6309C9.24414 16.6309 8.21191 16.6309 7.17285 16.6309C6.14746 16.6309 5.12207 16.624 4.09668 16.6104C3.20801 16.6104 2.42188 16.3438 1.73828 15.8105C1.05469 15.2773 0.59668 14.6006 0.364258 13.7803L0.34375 13.7598C0.316406 13.6504 0.29248 13.5376 0.271973 13.4214C0.251465 13.3052 0.227539 13.1924 0.200195 13.083V4.42871C0.200195 4.41504 0.203613 4.39795 0.210449 4.37744C0.217285 4.35693 0.227539 4.33984 0.241211 4.32617C0.350586 3.58789 0.606934 2.95557 1.01025 2.4292C1.41357 1.90283 1.95703 1.49609 2.64062 1.20898C2.81836 1.12695 2.99951 1.06885 3.18408 1.03467C3.36865 1.00049 3.55664 0.956055 3.74805 0.901367H16.791C16.8047 0.901367 16.8218 0.904785 16.8423 0.911621C16.8628 0.918457 16.8799 0.928711 16.8936 0.942383C17.7139 1.03809 18.4248 1.35938 19.0264 1.90625C19.6279 2.45312 20.0244 3.11621 20.2158 3.89551V3.91602C20.2432 4.01172 20.2637 4.10059 20.2773 4.18262C20.291 4.26465 20.3115 4.34668 20.3389 4.42871ZM10.2695 2.48047H4.21973C3.50879 2.48047 2.92432 2.70947 2.46631 3.16748C2.0083 3.62549 1.7793 4.20996 1.7793 4.9209V12.6113C1.7793 13.3223 2.0083 13.9067 2.46631 14.3647C2.92432 14.8228 3.50879 15.0518 4.21973 15.0518H16.2988C17.0234 15.0518 17.6147 14.8228 18.0728 14.3647C18.5308 13.9067 18.7598 13.3154 18.7598 12.5908V4.9209C18.7598 4.20996 18.5308 3.62549 18.0728 3.16748C17.6147 2.70947 17.0234 2.48047 16.2988 2.48047H10.249H10.2695ZM6.82422 8.73535L4.79395 6.64355C4.58887 6.43848 4.39062 6.2334 4.19922 6.02832C4.00781 5.82324 3.80957 5.625 3.60449 5.43359C3.44043 5.25586 3.35498 5.05762 3.34814 4.83887C3.34131 4.62012 3.41992 4.42871 3.58398 4.26465C3.74805 4.11426 3.93945 4.04248 4.1582 4.04932C4.37695 4.05615 4.56836 4.14844 4.73242 4.32617C5.14258 4.75 5.5459 5.16699 5.94238 5.57715C6.35254 6.00098 6.75928 6.42139 7.1626 6.83838C7.56592 7.25537 7.97266 7.66895 8.38281 8.0791C8.7793 8.50293 9.18262 8.91992 9.59277 9.33008C9.8252 9.57617 10.0508 9.6958 10.2695 9.68896C10.4883 9.68213 10.7139 9.5625 10.9463 9.33008C11.3018 8.96094 11.835 8.41064 12.5459 7.6792C13.2568 6.94775 14.0088 6.17188 14.8018 5.35156L15.7656 4.36719C15.875 4.24414 15.9912 4.15527 16.1143 4.10059C16.2373 4.0459 16.3809 4.03223 16.5449 4.05957C16.8457 4.11426 17.0439 4.28516 17.1396 4.57227C17.2354 4.85938 17.1875 5.11914 16.9961 5.35156C16.9141 5.44727 16.8252 5.53955 16.7295 5.62842C16.6338 5.71729 16.5449 5.80957 16.4629 5.90527L13.8174 8.6123C13.8037 8.63965 13.7866 8.66357 13.7661 8.68408C13.7456 8.70459 13.7217 8.72852 13.6943 8.75586L14.4326 9.49414C14.8428 9.93164 15.2529 10.3657 15.6631 10.7964C16.0732 11.2271 16.4902 11.6543 16.9141 12.0781C17.0098 12.1875 17.085 12.3037 17.1396 12.4268C17.1943 12.5498 17.2012 12.6865 17.1602 12.8369C17.1465 12.9873 17.0884 13.1172 16.9858 13.2266C16.8833 13.3359 16.7637 13.4043 16.627 13.4316C16.4766 13.4863 16.333 13.4932 16.1963 13.4521C16.0596 13.4111 15.9365 13.3359 15.8271 13.2266C15.6084 13.0078 15.3965 12.7925 15.1914 12.5806C14.9863 12.3687 14.7812 12.1533 14.5762 11.9346C14.248 11.5928 13.9233 11.2544 13.6021 10.9194C13.2808 10.5845 12.9561 10.2461 12.6279 9.9043C12.5322 10 12.4331 10.0923 12.3306 10.1812C12.228 10.27 12.1289 10.3691 12.0332 10.4785C11.8828 10.6152 11.7256 10.7417 11.5615 10.8579C11.3975 10.9741 11.2197 11.0664 11.0283 11.1348C10.5635 11.2715 10.1294 11.292 9.72607 11.1963C9.32275 11.1006 8.94336 10.8887 8.58789 10.5605C8.47852 10.4512 8.36572 10.3418 8.24951 10.2324C8.1333 10.123 8.00684 10.0068 7.87012 9.88379C7.85645 9.89746 7.84277 9.91797 7.8291 9.94531C7.81543 9.97266 7.79492 10 7.76758 10.0273C7.26172 10.5605 6.75586 11.0903 6.25 11.6167C5.74414 12.1431 5.23828 12.6729 4.73242 13.2061C4.62305 13.3291 4.5 13.4111 4.36328 13.4521C4.22656 13.4932 4.07617 13.4932 3.91211 13.4521C3.77539 13.4111 3.65576 13.3359 3.55322 13.2266C3.45068 13.1172 3.38574 12.9941 3.3584 12.8574C3.33105 12.707 3.34131 12.5669 3.38916 12.437C3.43701 12.3071 3.51562 12.1943 3.625 12.0986C4.13086 11.5654 4.63672 11.0322 5.14258 10.499C5.64844 9.96582 6.1543 9.43945 6.66016 8.91992C6.6875 8.89258 6.71484 8.86523 6.74219 8.83789C6.76953 8.81055 6.79688 8.77637 6.82422 8.73535Z" fill="#EB6C2D"/>
</svg>
