<svg width="20" height="21" viewBox="0 0 20 21" fill="none" xmlns="http://www.w3.org/2000/svg">
<g clip-path="url(#clip0_2632_6329)">
<path d="M16.4342 4.82411C16.4342 4.463 16.1897 4.163 15.8342 4.08522C15.512 4.013 15.2731 4.15189 15.0508 4.36855C11.4231 8.00744 7.78973 11.6519 4.15639 15.2908C4.11751 15.3297 4.07306 15.3741 4.03973 15.413C3.84528 15.6352 3.80084 15.8852 3.89528 16.1574C3.99528 16.4352 4.18973 16.613 4.48417 16.663C4.78417 16.713 5.01195 16.5908 5.21195 16.3852C7.10084 14.4908 8.98973 12.5963 10.8786 10.7019C12.6286 8.94633 14.3786 7.19078 16.1342 5.44078C16.3064 5.26855 16.4286 5.07967 16.4286 4.82411H16.4342ZM8.7175 7.60189C9.28417 7.58522 9.80084 7.42411 10.2119 7.02411C11.0508 6.20744 11.8731 5.37967 12.6953 4.54633C12.9286 4.313 12.962 4.013 12.8342 3.713C12.6175 3.21855 11.9897 3.113 11.5953 3.50189C10.8397 4.25189 10.0953 5.00189 9.34528 5.75744C8.91751 6.18522 8.50639 6.17966 8.07862 5.75189C7.33973 5.00744 6.60639 4.263 5.86195 3.51855C5.53973 3.19633 5.07862 3.18522 4.77306 3.48522C4.46195 3.78522 4.46751 4.263 4.78973 4.59078C5.55084 5.363 6.31751 6.13522 7.08417 6.90744C7.53417 7.363 8.08417 7.58522 8.72306 7.60189H8.7175ZM6.67862 9.61855C6.66751 9.02411 6.48973 8.49633 6.08973 8.07411C5.52862 7.48522 4.95084 6.913 4.37306 6.33522C4.20084 6.163 3.98417 6.09078 3.74528 6.12966C3.44528 6.17966 3.23417 6.34633 3.13417 6.63522C3.03417 6.93522 3.10084 7.20189 3.32306 7.42411C3.83973 7.95189 4.36195 8.47411 4.87862 8.99633C5.26195 9.38522 5.26195 9.80744 4.87862 10.2019C4.36751 10.7241 3.85084 11.2408 3.33973 11.7686C3.01751 12.1019 3.01195 12.5741 3.32306 12.8741C3.63417 13.1741 4.08973 13.1686 4.41195 12.8408C4.96195 12.2908 5.50639 11.7408 6.04528 11.1852C6.47306 10.7463 6.67306 10.2074 6.68417 9.613L6.67862 9.61855Z" fill="white"/>
<path d="M4.57816 19.7493C4.22261 19.6993 3.85594 19.6771 3.50594 19.5993C1.49483 19.1326 0.017051 17.3104 0.0114954 15.2382C0.00038429 11.7382 -0.00517127 8.2382 0.0114954 4.73819C0.0226065 2.24375 2.04483 0.232639 4.55594 0.227083C8.01705 0.215972 11.4782 0.215972 14.9393 0.227083C17.2115 0.238194 19.0782 1.87153 19.4337 4.12153C19.4615 4.30486 19.4782 4.48819 19.4782 4.67153C19.4782 5.98264 19.4837 7.29375 19.4782 8.60486C19.4782 9.17708 18.9948 9.53264 18.4726 9.36042C18.1504 9.25486 17.9615 8.97153 17.9615 8.57153C17.9615 7.31042 17.9615 6.04931 17.9615 4.79375C17.9615 3.42708 17.0948 2.26042 15.7837 1.87708C15.4782 1.78819 15.1448 1.74375 14.8282 1.74375C11.4448 1.73264 8.0615 1.73819 4.67816 1.74375C3.13372 1.74375 1.9115 2.71597 1.60594 4.18819C1.55594 4.41597 1.54483 4.65486 1.54483 4.88819C1.54483 8.27708 1.54483 11.6715 1.54483 15.0604C1.54483 16.8771 2.85594 18.2049 4.67816 18.2104C6.82816 18.216 8.98372 18.2104 11.1337 18.2104C11.2448 18.2104 11.3671 18.2104 11.4726 18.2382C11.8226 18.3215 12.0393 18.6271 12.0282 19.0049C12.0171 19.366 11.7782 19.6493 11.4282 19.716C11.3726 19.7271 11.3171 19.7437 11.2615 19.7549H4.57816V19.7493Z" fill="#EB6C2D"/>
<path d="M19.517 14.4871C19.1393 16.2482 18.067 17.6316 16.9948 18.9982C16.2337 19.9704 14.7393 19.9982 13.9504 19.0649C13.0837 18.0316 12.3393 16.9149 11.7448 15.6927C10.6281 13.3871 12.2337 10.6649 14.6615 10.2149C17.017 9.776 19.1393 11.326 19.4781 13.7149C19.4837 13.7593 19.5004 13.7982 19.5115 13.8427V14.4927L19.517 14.4871ZM15.4504 11.6482C15.2948 11.6649 15.1337 11.676 14.9781 11.7038C13.5059 11.9593 12.4115 13.6593 13.1504 15.0982C13.6837 16.1482 14.3393 17.1093 15.067 18.026C15.2781 18.2927 15.6281 18.2816 15.8448 18.0204C16.0393 17.7871 16.2226 17.5371 16.4004 17.2927C16.9337 16.5538 17.4504 15.8093 17.8004 14.9593C17.9004 14.7093 17.9893 14.4371 17.9948 14.1704C18.0059 12.7982 16.8504 11.6593 15.4615 11.6482H15.4504Z" fill="#EB6C2D"/>
<path d="M16.4336 4.82892C16.4336 5.08447 16.3169 5.27336 16.1392 5.44558C14.3892 7.20114 12.6392 8.95114 10.8836 10.7067C8.99472 12.6011 7.10028 14.4956 5.21694 16.39C5.01139 16.5956 4.78361 16.7178 4.48917 16.6678C4.18917 16.6178 3.99472 16.4456 3.90028 16.1623C3.80583 15.89 3.85028 15.6345 4.04472 15.4178C4.08361 15.3734 4.1225 15.3345 4.16139 15.2956C7.79472 11.6567 11.4281 8.01781 15.0558 4.37336C15.2781 4.15114 15.5169 4.01781 15.8392 4.09003C16.1892 4.16781 16.4336 4.46781 16.4392 4.82892H16.4336Z" fill="#EB6C2D"/>
<path d="M8.71147 7.60189C8.07258 7.59078 7.52258 7.363 7.07258 6.90744C6.30591 6.13522 5.53924 5.363 4.77813 4.59078C4.45591 4.263 4.45036 3.78522 4.76147 3.48522C5.07258 3.18522 5.52813 3.19633 5.85036 3.51855C6.58924 4.263 7.32813 5.00744 8.06702 5.75189C8.4948 6.18522 8.90591 6.19078 9.33369 5.75744C10.0837 5.00744 10.8281 4.25189 11.5837 3.50189C11.9781 3.113 12.6059 3.21855 12.8226 3.713C12.9559 4.013 12.917 4.30744 12.6837 4.54633C11.8615 5.37967 11.0392 6.20744 10.2004 7.02411C9.78924 7.42411 9.27258 7.58522 8.70591 7.60189H8.71147Z" fill="#EB6C2D"/>
<path d="M6.67831 9.6186C6.6672 10.2186 6.4672 10.7519 6.03942 11.1908C5.50053 11.7464 4.95609 12.3019 4.40609 12.8464C4.08387 13.1742 3.62276 13.1797 3.3172 12.8797C3.00609 12.5742 3.01165 12.1019 3.33387 11.7742C3.84498 11.2519 4.36165 10.7297 4.87276 10.2075C5.25609 9.81305 5.25609 9.39082 4.87276 9.00194C4.35609 8.47971 3.83387 7.95749 3.3172 7.42971C3.09498 7.20749 3.02831 6.93527 3.12831 6.64082C3.22831 6.35194 3.43942 6.17971 3.73942 6.13527C3.97831 6.09638 4.19498 6.1686 4.3672 6.34082C4.94498 6.9186 5.52276 7.48527 6.08387 8.07971C6.48387 8.50194 6.6672 9.02416 6.67276 9.62416L6.67831 9.6186Z" fill="#EB6C2D"/>
<path d="M15.4449 13.1797C15.9893 13.1797 16.3949 13.5964 16.3893 14.1409C16.3893 14.6797 15.9615 15.0909 15.4226 15.0853C14.9115 15.0797 14.4838 14.6353 14.4893 14.1186C14.4949 13.5964 14.9226 13.1742 15.4449 13.1797Z" fill="#EB6C2D"/>
</g>
<defs>
<clipPath id="clip0_2632_6329">
<rect width="20" height="20" fill="white" transform="translate(0 0.21875)"/>
</clipPath>
</defs>
</svg>
