<svg width="32" height="32" viewBox="0 0 32 32" fill="none" xmlns="http://www.w3.org/2000/svg">
<path d="M16 0C11.7565 6.32325e-08 7.68687 1.68571 4.68629 4.68629C1.68571 7.68687 0 11.7565 0 16C0 20.2435 1.68571 24.3131 4.68629 27.3137C7.68687 30.3143 11.7565 32 16 32C17.4756 32 18.6667 30.8089 18.6667 29.3333C18.6667 28.64 18.4 28.0178 17.9733 27.5378C17.5644 27.0756 17.2978 26.4533 17.2978 25.7778C17.2978 24.3022 18.4889 23.1111 19.9644 23.1111H23.1111C28.0178 23.1111 32 19.1289 32 14.2222C32 6.36444 24.8356 0 16 0ZM6.22222 16C4.74667 16 3.55556 14.8089 3.55556 13.3333C3.55556 11.8578 4.74667 10.6667 6.22222 10.6667C7.69778 10.6667 8.88889 11.8578 8.88889 13.3333C8.88889 14.8089 7.69778 16 6.22222 16ZM11.5556 8.88889C10.08 8.88889 8.88889 7.69778 8.88889 6.22222C8.88889 4.74667 10.08 3.55556 11.5556 3.55556C13.0311 3.55556 14.2222 4.74667 14.2222 6.22222C14.2222 7.69778 13.0311 8.88889 11.5556 8.88889ZM20.4444 8.88889C18.9689 8.88889 17.7778 7.69778 17.7778 6.22222C17.7778 4.74667 18.9689 3.55556 20.4444 3.55556C21.92 3.55556 23.1111 4.74667 23.1111 6.22222C23.1111 7.69778 21.92 8.88889 20.4444 8.88889ZM25.7778 16C24.3022 16 23.1111 14.8089 23.1111 13.3333C23.1111 11.8578 24.3022 10.6667 25.7778 10.6667C27.2533 10.6667 28.4444 11.8578 28.4444 13.3333C28.4444 14.8089 27.2533 16 25.7778 16Z" fill="#FF7315"/>
</svg>
