<svg width="50" height="50" viewBox="0 0 50 50" fill="none" xmlns="http://www.w3.org/2000/svg">
<g clip-path="url(#clip0_750_9079)">
<path d="M24.4313 11.8449L13.4063 0.819832C12.2965 -0.273277 10.5146 -0.273277 9.40475 0.819832L0.851019 9.3739C-0.242006 10.4834 -0.242006 12.2654 0.851019 13.3752L11.876 24.4005L24.4313 11.8449ZM4.09188 13.9692L9.46186 8.61336C9.83314 8.24241 10.4358 8.24241 10.8068 8.61336C11.1779 8.98439 11.1779 9.58704 10.8068 9.95841L5.44643 15.3139L4.09188 13.9692ZM7.49937 17.3813L9.84204 15.0052C10.2134 14.6339 10.8161 14.6339 11.1871 15.0052C11.558 15.3763 11.558 15.9789 11.1871 16.3499L8.844 18.7071L7.49937 17.3813ZM13.24 18.4363C13.6531 18.1119 14.2504 18.1838 14.5743 18.5965C14.7039 18.7617 14.7753 18.9651 14.7772 19.1752C14.7791 19.3852 14.7114 19.5899 14.5848 19.7574L12.2421 22.1L10.897 20.755L13.24 18.4363Z" fill="#FF7315"/>
<path d="M48.9922 8.77442C48.9941 4.47069 45.506 0.979555 41.2019 0.97754C40.1774 0.977131 39.1629 1.1787 38.2165 1.57073C37.27 1.96275 36.4101 2.53753 35.6859 3.26218L5.46688 33.4907C5.35459 33.6011 5.27277 33.7386 5.22938 33.89L1.0428 47.7568C0.924384 48.0928 1.01786 48.4667 1.2803 48.7073C1.40874 48.819 1.5618 48.8988 1.72697 48.94C1.89214 48.9813 2.06473 48.9829 2.23064 48.9448L16.0975 44.7581C16.2468 44.7101 16.3833 44.6289 16.4967 44.5206L46.7254 14.292C47.4496 13.5681 48.0229 12.7077 48.412 11.7605C48.8011 10.8134 48.9983 9.79838 48.9922 8.77442ZM6.60753 45.6327C6.11331 44.6709 5.31221 43.9015 4.3312 43.4465L6.59308 35.962L14.0255 43.3944L6.60753 45.6327ZM10.9795 37.6633L7.48673 34.1701L31.1762 10.452L34.6693 13.9497L10.9795 37.6633ZM40.8709 17.4426L32.5402 9.11203L34.6218 7.03054L42.957 15.3657L40.8709 17.4426Z" fill="#FF7315"/>
<path d="M49.165 36.5798L38.1397 25.5547L25.5703 38.1243L36.5952 49.1496C37.705 50.2424 39.487 50.2424 40.5965 49.1496L49.1505 40.5956C50.2436 39.4858 50.2436 37.7038 49.1505 36.5943L49.165 36.5798ZM27.8797 37.7442L30.2274 35.4012C30.5987 35.0301 31.2013 35.0301 31.5723 35.4012C31.9434 35.7725 31.9434 36.3752 31.5723 36.7462L29.2294 39.0891L27.8797 37.7442ZM31.2775 41.1421L33.6204 38.7991C33.9914 38.4238 34.5971 38.4209 34.9723 38.7919C35.3479 39.1633 35.3506 39.7686 34.9796 40.1442L32.6035 42.4868L31.2775 41.1421ZM41.376 40.5241L36.0156 45.894L34.6705 44.5493L40.0313 39.184C40.4023 38.8129 41.0049 38.8129 41.376 39.184C41.747 39.555 41.747 40.1576 41.376 40.529V40.5241Z" fill="#FF7315"/>
</g>
<defs>
<clipPath id="clip0_750_9079">
<rect width="50" height="50" fill="white"/>
</clipPath>
</defs>
</svg>
