<svg width="37" height="32" viewBox="0 0 37 32" fill="none" xmlns="http://www.w3.org/2000/svg">
<path d="M10.8384 13.419C12.6179 13.419 14.3245 12.7121 15.5828 11.4538C16.841 10.1956 17.5479 8.48897 17.5479 6.7095C17.5479 4.93003 16.841 3.22344 15.5828 1.96517C14.3245 0.706891 12.6179 0 10.8384 0C9.05895 0 7.35236 0.706891 6.09409 1.96517C4.83581 3.22344 4.12892 4.93003 4.12892 6.7095C4.12892 8.48897 4.83581 10.1956 6.09409 11.4538C7.35236 12.7121 9.05895 13.419 10.8384 13.419ZM17.5479 15.4835C18.6232 15.483 19.6563 15.9021 20.4274 16.6516C21.1985 17.4011 21.6467 18.4219 21.6768 19.4968L18.1136 23.06C17.268 23.9059 16.6679 24.9655 16.3774 26.1258L16.1585 26.999C14.765 27.5358 13.0206 27.8702 10.8384 27.8702C0 27.8702 0 19.6124 0 19.6124C0 18.5173 0.43501 17.4671 1.20933 16.6928C1.98366 15.9185 3.03386 15.4835 4.12892 15.4835H17.5479ZM31.9991 8.25784C31.9991 9.62667 31.4554 10.9394 30.4875 11.9073C29.5196 12.8752 28.2068 13.419 26.838 13.419C25.4692 13.419 24.1564 12.8752 23.1885 11.9073C22.2206 10.9394 21.6768 9.62667 21.6768 8.25784C21.6768 6.88902 22.2206 5.57626 23.1885 4.60836C24.1564 3.64045 25.4692 3.09669 26.838 3.09669C28.2068 3.09669 29.5196 3.64045 30.4875 4.60836C31.4554 5.57626 31.9991 6.88902 31.9991 8.25784ZM29.5424 14.5503L19.5711 24.5217C18.9902 25.1027 18.5778 25.8305 18.3778 26.6274L17.6037 29.72C17.5273 30.0276 17.5318 30.3497 17.6167 30.655C17.7017 30.9603 17.8641 31.2385 18.0883 31.4624C18.3125 31.6864 18.5908 31.8486 18.8962 31.9333C19.2016 32.0179 19.5237 32.0221 19.8312 31.9455L22.9238 31.1734C23.7207 30.9734 24.4485 30.561 25.0295 29.9801L35.0009 20.0088C35.7155 19.2827 36.1141 18.3037 36.11 17.285C36.1059 16.2663 35.6993 15.2905 34.9788 14.5704C34.2583 13.8502 33.2824 13.4439 32.2637 13.4402C31.245 13.4364 30.2661 13.8355 29.5404 14.5503" fill="#FF7315"/>
</svg>
