<svg width="13" height="20" viewBox="0 0 13 20" fill="none" xmlns="http://www.w3.org/2000/svg">
<g clip-path="url(#clip0_2568_763)">
<path d="M8.95585 19.9902H3.50707C3.47293 19.9805 3.4339 19.961 3.39976 19.9561C1.47781 19.7024 0.00951315 18.0732 0.0046351 16.1415C-0.00024295 12.0439 -0.00024295 7.94634 0.0046351 3.84878C0.00951315 2.21951 1.07293 0.75122 2.60951 0.229268C2.9022 0.131707 3.20951 0.0780488 3.50707 0C5.32171 0 7.14122 0 8.95585 0C8.99 0.0097561 9.02903 0.0292683 9.06317 0.0341463C10.6778 0.24878 11.9705 1.41463 12.351 3.00488C12.39 3.17561 12.4241 3.34634 12.4583 3.5122V16.4732C12.4485 16.5073 12.429 16.5463 12.4241 16.5805C12.19 18.0878 11.3656 19.1415 9.96073 19.7171C9.64366 19.8488 9.29244 19.8976 8.95585 19.9854V19.9902ZM10.9022 10.0146C10.9022 8.00488 10.9022 5.99512 10.9022 3.98537C10.9022 2.58049 9.88756 1.56098 8.48268 1.56098C6.98512 1.56098 5.48756 1.56098 3.99 1.56098C2.57537 1.56098 1.56073 2.57561 1.56073 3.99024C1.56073 7.99024 1.56073 11.9902 1.56073 15.9951C1.56073 17.4146 2.57537 18.4293 3.98512 18.4293C5.47781 18.4293 6.97049 18.4293 8.45829 18.4293C9.88756 18.4293 10.8973 17.4195 10.8973 15.9902C10.8973 14 10.8973 12.0098 10.8973 10.0195L10.9022 10.0146Z" fill="#EB6C2D"/>
<path d="M6.23876 3.12109C6.49242 3.12109 6.74607 3.12109 6.99485 3.12109C7.44851 3.12597 7.78998 3.46744 7.7851 3.91134C7.7851 4.34061 7.44364 4.67719 6.99973 4.68207C6.48754 4.68695 5.97534 4.68695 5.46315 4.68207C5.00949 4.68207 4.66803 4.33085 4.6729 3.89183C4.6729 3.46256 5.01437 3.12597 5.45827 3.12109C5.71681 3.12109 5.97534 3.12109 6.23388 3.12109H6.23876Z" fill="#EB6C2D"/>
<path d="M6.23383 16.8678C5.98017 16.8678 5.72651 16.8678 5.47773 16.8678C5.01919 16.863 4.67773 16.5312 4.67285 16.0922C4.67285 15.6532 5.01432 15.3117 5.46797 15.3069C5.98017 15.3069 6.49236 15.302 7.00456 15.3069C7.44846 15.3069 7.78505 15.6483 7.78992 16.0825C7.78992 16.5117 7.45334 16.8581 7.01431 16.8678C6.75578 16.8727 6.49724 16.8678 6.23871 16.8678H6.23383Z" fill="#EB6C2D"/>
</g>
<defs>
<clipPath id="clip0_2568_763">
<rect width="13" height="20" fill="white"/>
</clipPath>
</defs>
</svg>
