<svg width="18" height="23" viewBox="0 0 18 23" fill="none" xmlns="http://www.w3.org/2000/svg">
<path d="M9 0C4.02975 0 0 3.86184 0 8.625C0 10.5006 0.641625 12.2216 1.70813 13.6311C1.72725 13.6649 1.73025 13.7026 1.752 13.735L7.752 22.36C8.03025 22.7599 8.499 23 9 23C9.501 23 9.96975 22.7599 10.248 22.36L16.248 13.735C16.2701 13.7026 16.2727 13.6649 16.2919 13.6311C17.3584 12.2216 18 10.5006 18 8.625C18 3.86184 13.9703 0 9 0ZM9 11.5C7.34325 11.5 6 10.2127 6 8.625C6 7.03728 7.34325 5.75 9 5.75C10.6567 5.75 12 7.03728 12 8.625C12 10.2127 10.6567 11.5 9 11.5Z" fill="#B33856"/>
</svg>
