<svg width="25" height="32" viewBox="0 0 25 32" fill="none" xmlns="http://www.w3.org/2000/svg">
<g clip-path="url(#clip0_2632_5982)">
<path d="M19.0789 32H5.92105C5.87237 31.9812 5.825 31.9524 5.77434 31.9455C2.92368 31.5587 0.752632 29.6437 0.165132 26.9794C0.0809211 26.5969 0.0532895 26.2025 0 25.8131C0 23.4387 0 21.0642 0 18.6897C0.0164474 18.5771 0.0394737 18.465 0.0473684 18.3523C0.248684 15.5522 2.175 13.3336 5.03092 12.6312C5.24934 12.5774 5.30197 12.4853 5.3 12.2882C5.29408 11.6847 5.27697 11.0787 5.31842 10.4771C5.40329 9.25638 6.04539 8.3543 7.1875 7.80403C7.58947 7.61059 8.04605 7.51982 8.51974 7.36895C8.51974 7.1824 8.51184 6.95516 8.52171 6.72854C8.5375 6.35482 8.53487 5.97671 8.59276 5.60798C8.85066 3.9766 9.55526 2.49671 10.4322 1.09882C11.3743 -0.402977 13.6743 -0.348514 14.6138 1.15892C14.775 1.41809 14.9171 1.68853 15.0592 1.95834C15.9257 3.60788 16.5329 5.31814 16.4171 7.19805C16.4125 7.2763 16.4355 7.35581 16.4447 7.43343C16.5454 7.44595 16.6217 7.45409 16.6974 7.46536C18.4618 7.73142 19.6105 8.93836 19.6947 10.6361C19.7217 11.1764 19.7138 11.7191 19.6993 12.26C19.6934 12.486 19.7651 12.5742 20.0046 12.6387C22.4586 13.2973 24.0559 14.7909 24.7447 17.1272C24.8875 17.6118 24.9178 18.1263 25 18.6271V25.7505C24.9829 25.8732 24.9579 25.9953 24.95 26.1186C24.7737 28.8217 22.8118 31.1042 20.0645 31.7928C19.7395 31.8742 19.4079 31.9305 19.0789 31.9987V32ZM7.9329 12.4409C8.09145 12.4409 8.20987 12.4409 8.32829 12.4409C9.91842 12.4409 11.5079 12.4371 13.098 12.4428C13.7809 12.4453 14.3217 12.8822 14.4158 13.4857C14.5401 14.2845 13.9447 14.9368 13.0704 14.9387C10.9651 14.9437 8.85987 14.9393 6.75461 14.9406C4.38158 14.9418 2.67171 16.5588 2.66579 18.8175C2.65987 21.088 2.65921 23.3579 2.66579 25.6285C2.67237 27.8846 4.38487 29.4991 6.76053 29.4997C10.5763 29.501 14.3921 29.5003 18.2072 29.4997C20.6263 29.4997 22.3263 27.8921 22.3329 25.594C22.3368 24.2193 22.3368 22.8446 22.3329 21.4699C22.3303 20.4288 22.3645 19.3852 22.3013 18.3467C22.1908 16.5181 20.5013 15.0069 18.5691 14.9424C17.5408 14.908 17.073 14.4529 17.0704 13.482C17.0684 12.6174 17.0717 11.7529 17.0691 10.889C17.0671 10.2017 16.7941 9.94249 16.0789 9.94124C15.6072 9.94061 15.1362 9.94124 14.6645 9.94124C12.7125 9.94124 10.7612 9.93936 8.80921 9.94249C8.27829 9.94311 7.95329 10.2042 7.93553 10.6781C7.91382 11.2496 7.93026 11.8224 7.93026 12.4409H7.9329ZM11.1829 7.41591H13.7592C13.9007 5.98359 13.1855 3.42383 12.4592 2.75713C11.6697 4.21511 10.9559 5.68498 11.1822 7.41591H11.1829Z" fill="white"/>
<path d="M17 23.1971C16.8347 25.2251 15.2461 26.8578 13.249 26.9909C11.2095 27.1272 9.4001 25.717 9.05038 23.7085C8.93204 23.0288 9.02393 22.37 9.30754 21.7373C9.80072 20.6362 10.4764 19.6447 11.2763 18.7465C12.1602 17.7537 13.7653 17.7504 14.6478 18.7413C15.4702 19.6643 16.1862 20.6727 16.6443 21.8253C16.8175 22.2617 16.8843 22.7386 17 23.1971ZM13.0434 20.8149C12.9958 20.8195 12.9488 20.8234 12.9012 20.828C12.535 21.4281 12.1383 22.0125 11.8104 22.6322C11.4653 23.2852 11.7694 24.006 12.4576 24.2878C12.9634 24.4946 13.4361 24.4137 13.836 24.0536C14.1897 23.7359 14.427 23.3132 14.2095 22.8638C13.8684 22.1587 13.4361 21.4959 13.0427 20.8149H13.0434Z" fill="white"/>
</g>
<defs>
<clipPath id="clip0_2632_5982">
<rect width="25" height="32" fill="white"/>
</clipPath>
</defs>
</svg>
