<svg width="32" height="32" viewBox="0 0 32 32" fill="none" xmlns="http://www.w3.org/2000/svg">
<path d="M0 10.9638C0.109228 10.7733 0.188667 10.5582 0.333271 10.3972C0.814248 9.86252 1.61671 9.86913 2.17154 10.408C3.44752 11.6475 4.71668 12.8948 5.98832 14.1384C7.34003 15.4608 8.68801 16.7861 10.0447 18.1037C12.0685 20.0683 15.1039 20.1008 17.1582 18.1722C19.7021 15.784 22.2373 13.3874 24.7719 10.9902C25.1194 10.6616 25.5073 10.4687 25.9982 10.5697C26.4693 10.6664 26.7926 10.9434 26.9372 11.3922C27.0862 11.8554 26.9664 12.2669 26.617 12.6028C25.9064 13.2865 25.184 13.9594 24.4665 14.6365C22.632 16.3674 20.7975 18.0989 18.9623 19.8298C15.8648 22.7503 11.2915 22.7215 8.24426 19.7535C5.65133 17.2283 3.0646 14.6978 0.485322 12.16C0.28176 11.9605 0.159498 11.6841 0 11.4438C0 11.284 0 11.1242 0 10.9638Z" fill="white"/>
<path d="M0 29.8041C0.24375 29.1997 0.7825 29.0005 1.55187 29.001C11.1819 29.01 20.8119 29.0105 30.4412 29C31.2162 28.999 31.7469 29.2071 32 29.8041V30.2029C31.8375 30.6052 31.505 30.8712 31 31H1C0.489375 30.8752 0.159375 30.6072 0 30.2029V29.8041Z" fill="white"/>
<path d="M31.9994 25.7976C31.7487 26.7192 31.1931 27.0007 30.4163 27C20.795 26.9851 11.1737 26.9858 1.55313 27C0.78375 27.0007 0.245625 26.6998 0 25.7984V25.2016C0.244375 24.2987 0.783125 23.9985 1.5525 24C11.1737 24.0134 20.795 24.0142 30.4169 24C31.1944 23.9985 31.7506 24.2793 32 25.2024V25.7991L31.9994 25.7976Z" fill="white"/>
<path d="M32 12.0171C31.8388 12.4438 31.5987 12.7959 31.1347 12.9414C30.3513 13.1875 29.5531 12.6294 29.5395 11.805C29.5254 10.9128 29.5395 10.0205 29.5377 9.12828C29.5358 8.09976 28.8976 7.46465 27.865 7.46341C27.0237 7.46218 26.183 7.46588 25.3417 7.46711C24.5589 7.46773 24.0081 6.9695 24.0001 6.25361C23.9921 5.53833 24.5392 5.01297 25.3122 5.00681C26.1941 5.00002 27.076 4.99817 27.9585 5.00187C29.974 5.01051 31.5957 6.3831 31.9465 8.37046C31.9551 8.41855 31.9822 8.46295 32 8.5092V12.0171Z" fill="white"/>
<path d="M10.9962 4.34919C10.9962 5.27112 10.9997 6.19305 10.9962 7.11563C10.9881 9.28506 9.42996 11.0064 7.48365 11C5.55424 10.9935 4.0078 9.27024 4.00314 7.11369C3.99906 5.1944 3.99847 3.27511 4.0043 1.35647C4.00722 0.391989 4.72885 -0.208232 5.53675 0.0670576C6.03863 0.237905 6.33183 0.713698 6.333 1.38097C6.33591 3.27898 6.33242 5.17635 6.33475 7.07437C6.33591 7.73326 6.64077 8.20325 7.15606 8.36249C7.96629 8.61328 8.6617 8.02466 8.66403 7.07243C8.66927 5.17442 8.66403 3.27705 8.66636 1.37903C8.66753 0.711764 8.96073 0.236615 9.46319 0.0664129C10.2472 -0.199206 10.9799 0.377161 10.9927 1.29458C11.0067 2.31321 10.9962 3.33185 10.9962 4.35048V4.34919Z" fill="white"/>
<path d="M18.0351 10.9994C16.9083 10.9388 16.0173 10.4257 15.6191 9.3085C15.2392 8.24415 14.9675 7.12829 14.747 6.01307C14.4532 4.52762 14.2523 3.0222 14.0178 1.52451C13.9036 0.793054 14.35 0.140149 15.031 0.0178103C15.7034 -0.102597 16.3226 0.399637 16.4393 1.1575C16.6219 2.34998 16.7856 3.54697 16.9962 4.73431C17.1679 5.6995 17.3932 6.65439 17.6039 7.61185C17.6473 7.80824 17.7169 8.00205 17.8012 8.18298C17.8445 8.2757 17.9563 8.4077 18.021 8.39804C18.1138 8.38452 18.2409 8.27313 18.2677 8.17719C18.465 7.47084 18.6898 6.76707 18.8137 6.04527C19.091 4.42524 19.3176 2.79555 19.5576 1.16909C19.6669 0.427324 20.2538 -0.0781294 20.9256 0.0120153C21.6053 0.102804 22.0945 0.747982 21.9845 1.48073C21.6975 3.39179 21.4111 5.3035 21.0727 7.20491C20.9451 7.92414 20.7295 8.6395 20.4596 9.3143C20.018 10.4179 19.1576 10.9356 18.0351 11V10.9994Z" fill="white"/>
</svg>
