<svg width="57" height="57" viewBox="0 0 57 57" fill="none" xmlns="http://www.w3.org/2000/svg">
<g clip-path="url(#clip0_750_9073)">
<path d="M25.2136 29.9763C24.9753 29.7807 24.6274 29.7986 24.4093 30.0166L15.1833 39.2427C15.0111 39.4149 15.1628 39.7104 15.402 39.6652C16.3287 39.4903 17.9472 38.528 18.3928 38.878C18.9726 39.3334 17.9278 42.1279 18.5465 42.5025C19.1754 42.8834 21.1678 40.6612 21.8291 40.9587C22.4982 41.2597 22.1571 44.2236 22.851 44.4392C23.5502 44.6565 24.9501 42.0206 25.6662 42.1513C26.3854 42.2824 26.7641 45.2423 27.4918 45.2862C28.2205 45.33 28.9514 42.4367 29.6801 42.3928C30.4078 42.349 31.4805 45.134 32.1996 45.0029C32.9158 44.8724 32.9356 41.8886 33.6348 41.6713C34.3289 41.4557 36.0369 43.9031 36.7059 43.6023C37.3672 43.3048 36.6692 40.4041 37.2981 40.0234C37.9168 39.6486 40.1639 41.6131 40.7436 41.1576C41.3108 40.7121 39.9376 38.0634 40.4605 37.5406C40.9832 37.0179 43.632 38.391 44.0776 37.8238C44.5329 37.244 42.5684 34.9969 42.9432 34.3783C43.3241 33.7494 46.2246 34.4476 46.5221 33.7862C46.8231 33.1172 44.3756 31.409 44.5912 30.715C44.8085 30.0159 47.7922 29.9961 47.9229 29.2799C48.0539 28.5608 45.269 27.4881 45.3127 26.7604C45.3566 26.0317 48.2498 25.3008 48.2061 24.572C48.1622 23.8443 45.2024 23.4656 45.0714 22.7465C44.9408 22.0303 47.5765 20.6305 47.3593 19.9313C47.1436 19.2373 44.1797 19.5783 43.8787 18.9093C43.5813 18.248 45.8034 16.2556 45.4226 15.6266C45.0479 15.0079 42.2535 16.0527 41.7981 15.4729C41.4481 15.0272 42.4104 13.4088 42.5852 12.4821C42.6304 12.2429 42.3349 12.0912 42.1628 12.2633L32.9366 21.4894C32.7186 21.7074 32.7007 22.0553 32.8964 22.2936C34.6572 24.4379 34.5361 27.6101 32.5331 29.6132C30.5302 31.616 27.358 31.7372 25.2136 29.9763Z" fill="#FF7315"/>
<path d="M6.42406 28.452L1.79538 33.0807C0.616625 34.2595 0.0195802 35.7988 0.00169735 37.3436H0V46.8235H10.7031V41.5109L19.6107 32.6032C19.8253 32.3887 20.0198 32.1619 20.1958 31.9255L48.3949 3.7265C48.6651 3.45626 48.6651 3.0181 48.3949 2.74786L46.6368 0.989822C46.5017 0.8547 46.3246 0.787109 46.1475 0.787109C45.9704 0.787109 45.7933 0.8547 45.6582 0.989822L40.7965 5.85141C36.794 2.50714 31.795 0.791595 26.8324 0.791595C21.3643 0.791595 15.9406 2.87479 11.9445 7.15764C6.18164 13.3338 4.35559 21.4354 6.42406 28.452ZM5.21603 39.3539C4.16149 39.3539 3.30663 38.4989 3.30663 37.4445C3.30663 36.39 4.16149 35.5351 5.21603 35.5351C6.27057 35.5351 7.12543 36.39 7.12543 37.4445C7.12543 38.499 6.27057 39.3539 5.21603 39.3539ZM19.2821 14.9456C22.7299 11.4978 28.1823 11.2766 31.8872 14.282C32.3006 14.6173 32.3308 15.2382 31.9544 15.6146L29.4619 18.1072C27.5519 17.4011 25.2963 17.8345 23.7336 19.3971C22.1708 20.9598 21.7375 23.2154 22.4436 25.1255L19.9511 27.618C19.5747 27.9944 18.9539 27.9643 18.6185 27.5509C15.6132 23.8458 15.8344 18.3933 19.2821 14.9456Z" fill="#FF7315"/>
<path d="M52.9893 56.2128H56.3903C56.7271 56.2128 57 55.9399 57 55.6032V54.2086V51.7815V48.9485C57 48.6118 56.7271 48.3389 56.3903 48.3389H12.2186H11.4608H10.7031H0V49.5887V50.3464V51.1042V51.7815V54.2086V55.6032C0 55.9398 0.272971 56.2128 0.609653 56.2128H4.01085C4.34753 56.2128 4.6205 55.9398 4.6205 55.6032V54.432C9.70741 55.4004 18.5024 56.0404 28.5 56.0404C38.4977 56.0404 47.2926 55.4003 52.3795 54.432V55.6032C52.3795 55.9399 52.6525 56.2128 52.9893 56.2128Z" fill="#FF7315"/>
</g>
<defs>
<clipPath id="clip0_750_9073">
<rect width="57" height="57" fill="white"/>
</clipPath>
</defs>
</svg>
