<svg width="28" height="26" viewBox="0 0 28 26" fill="none" xmlns="http://www.w3.org/2000/svg">
<path d="M1 19.5341V19.3438C1 18.9429 1 18.7425 1.03066 18.5472C1.05789 18.3738 1.10306 18.2037 1.16544 18.0397C1.23571 17.8549 1.33516 17.6809 1.53405 17.3328L6.06665 9.40076M1 19.5341C1 22.3323 3.26842 24.6007 6.06665 24.6007C8.86488 24.6007 11.1333 22.3323 11.1333 19.5341M1 19.5341V19.2807C1 18.926 1 18.7487 1.06903 18.6132C1.12975 18.494 1.22664 18.3971 1.3458 18.3364C1.48128 18.2674 1.65863 18.2674 2.01333 18.2674H10.12C10.4747 18.2674 10.652 18.2674 10.7875 18.3364C10.9067 18.3971 11.0036 18.494 11.0643 18.6132C11.1333 18.7487 11.1333 18.926 11.1333 19.2807V19.5341M6.06665 9.40076L10.5992 17.3328C10.7981 17.6809 10.8976 17.8549 10.9679 18.0397C11.0302 18.2037 11.0754 18.3738 11.1026 18.5472C11.1333 18.7425 11.1333 18.9429 11.1333 19.3438V19.5341M6.06665 9.40076L21.2666 6.86743M16.2 17.0007V16.8105C16.2 16.4096 16.2 16.2092 16.2306 16.0139C16.2578 15.8405 16.303 15.6704 16.3654 15.5063C16.4357 15.3216 16.5351 15.1475 16.734 14.7995L21.2666 6.86743M16.2 17.0007C16.2 19.799 18.4684 22.0674 21.2666 22.0674C24.0648 22.0674 26.3333 19.799 26.3333 17.0007M16.2 17.0007V16.7474C16.2 16.3927 16.2 16.2154 16.269 16.0799C16.3297 15.9607 16.4266 15.8638 16.5458 15.8031C16.6812 15.7341 16.8586 15.7341 17.2133 15.7341H25.3199C25.6746 15.7341 25.852 15.7341 25.9874 15.8031C26.1066 15.8638 26.2035 15.9607 26.2642 16.0799C26.3333 16.2154 26.3333 16.3927 26.3333 16.7474V17.0007M21.2666 6.86743L25.7992 14.7995C25.9981 15.1475 26.0975 15.3216 26.1678 15.5063C26.2302 15.6704 26.2754 15.8405 26.3026 16.0139C26.3333 16.2092 26.3333 16.4096 26.3333 16.8105V17.0007M13.6666 1.80078V8.13409" stroke="white" stroke-width="1.72727" stroke-linecap="round" stroke-linejoin="round"/>
</svg>
