<svg width="32" height="32" viewBox="0 0 32 32" fill="none" xmlns="http://www.w3.org/2000/svg">
<path fill-rule="evenodd" clip-rule="evenodd" d="M12.3955 32C10.7399 31.6336 9.15154 31.0114 7.68753 30.156L7.77241 28.4961C7.88809 26.2325 6.14058 24.4918 3.88312 24.6068L2.04868 24.7006C1.17833 23.3196 0.519839 21.8159 0.0951443 20.2397L1.53532 18.9392C3.2178 17.421 3.21369 14.9541 1.53532 13.4393L0 12.0532C0.376106 10.5116 0.974945 9.03308 1.77763 7.66426L3.88312 7.77172C6.14674 7.8874 7.8874 6.13989 7.77241 3.88244L7.66426 1.77763C9.03266 0.975067 10.5107 0.376232 12.0519 0L13.4386 1.53532C14.9582 3.2178 17.4244 3.21369 18.9392 1.53532L20.2397 0.0951443C21.8156 0.51969 23.3191 1.17795 24.6999 2.048L24.6061 3.88244C24.4904 6.14674 26.2379 7.8874 28.4954 7.77241L30.1553 7.68753C31.0108 9.15154 31.6329 10.7399 31.9993 12.3955L30.8425 13.4393C29.1607 14.9589 29.1655 17.4251 30.8425 18.9399L31.911 19.9037C31.4947 21.5928 30.8111 23.2045 29.8863 24.678L28.4954 24.6068C26.2318 24.4911 24.4911 26.2386 24.6061 28.4961L24.6773 29.887C23.2038 30.8118 21.5921 31.4953 19.903 31.9117L18.9392 30.8439C17.4196 29.1614 14.9534 29.1655 13.4386 30.8439L12.3955 32ZM15.9603 22.8052C19.7407 22.8052 22.8052 19.7407 22.8052 15.9603C22.8052 12.1799 19.7407 9.11538 15.9603 9.11538C12.1799 9.11538 9.11538 12.1799 9.11538 15.9603C9.11538 19.7407 12.1799 22.8052 15.9603 22.8052Z" fill="#FF7315"/>
</svg>
