<svg width="48" height="50" viewBox="0 0 48 50" fill="none" xmlns="http://www.w3.org/2000/svg">
<path d="M23.2014 0.737305C23.0696 0.761719 22.5716 0.849609 22.1028 0.932617C21.6341 1.01562 19.9837 1.32812 18.4407 1.63086C16.8977 1.93848 14.5198 2.40234 13.1575 2.66602L10.677 3.14453L10.6477 3.32031C10.4085 4.79492 9.64187 6.14746 8.11843 7.78809C6.17995 9.87305 3.09402 11.8262 1.05788 12.2559C0.774681 12.3193 0.540306 12.373 0.53054 12.3779C0.476829 12.4219 0.740501 15.7129 0.891868 16.8701C1.82449 24.1602 5.00808 31.7871 9.74929 38.1104C11.1165 39.9316 12.1663 41.1328 13.8069 42.749C16.5999 45.498 19.1829 47.3242 22.6692 49.0088C23.221 49.2773 23.2698 49.292 23.6165 49.292C23.9827 49.292 23.9876 49.292 24.9348 48.8232C26.1311 48.2373 26.8538 47.8271 27.8157 47.1924C32.0051 44.4434 35.7844 40.3467 39.4124 34.6191C40.8968 32.2754 42.5667 28.9502 43.7581 25.9766C45.4231 21.8164 46.5169 17.0215 46.5999 13.5156L46.6292 12.3584L46.4876 12.3291C45.3987 12.0801 44.8616 11.8945 43.9827 11.4551C41.8587 10.3857 39.4417 8.38867 38.0696 6.56738C37.2786 5.51758 36.7561 4.42383 36.6536 3.60352C36.6341 3.41309 36.595 3.24219 36.5706 3.21777C36.4778 3.125 24.2854 0.727539 23.7874 0.703125C23.6018 0.698242 23.3382 0.708008 23.2014 0.737305ZM36.8635 16.4941L38.802 18.4326L30.6966 26.5381L22.5911 34.6436L16.2337 28.2861L9.87136 21.9238L11.8001 19.9951L13.7288 18.0664L16.6096 20.9424C20.2132 24.5361 22.4446 26.709 22.5276 26.709C22.6155 26.709 23.636 25.7031 29.8079 19.5654C32.5813 16.8066 34.8665 14.5508 34.886 14.5508C34.9055 14.5508 35.7942 15.4248 36.8635 16.4941Z" fill="#FF7315"/>
</svg>
