<svg width="55" height="50" viewBox="0 0 55 50" fill="none" xmlns="http://www.w3.org/2000/svg">
<path d="M13.8722 6.62812C7.02752 10.05 1.35852 12.8977 1.26539 12.9797C0.951095 13.2375 0.648438 13.9992 0.648438 14.55C0.648438 15.6867 1.48656 16.5305 2.61571 16.5305C3.2443 16.5305 3.67501 16.3195 14.8035 10.6359C21.1476 7.40156 26.4092 4.75312 26.5023 4.75312C26.5955 4.75312 31.7988 7.38984 38.0732 10.6125C44.3475 13.8352 49.6672 16.5305 49.8884 16.5891C51.425 17.0227 52.7986 16.1086 52.7986 14.6437C52.7986 14.2102 52.4726 13.4484 52.1816 13.2141C52.007 13.0617 49.8069 11.9602 35.5588 4.85859C30.6464 2.42109 26.5605 0.417183 26.4791 0.417183C26.3859 0.428902 20.7169 3.21796 13.8722 6.62812Z" fill="#FF7315"/>
<path d="M1.10156 23.334V48.334" stroke="#FF7315" stroke-width="2" stroke-linecap="round"/>
<path d="M52.9766 23.334V48.334" stroke="#FF7315" stroke-width="2" stroke-linecap="round"/>
<path d="M12.6406 26.667V32.6436H18.5774H24.5141V26.667V20.6904H18.5774H12.6406V26.667Z" fill="#FF7315"/>
<path d="M28.4688 26.667V32.6436H34.4055H40.3422V26.667V20.6904H34.4055H28.4688V26.667Z" fill="#FF7315"/>
<path d="M4.69086 36.71C4.6443 36.7451 4.60938 39.4639 4.60938 42.7451V48.6982L10.581 48.6748L16.541 48.6396V42.6631V36.6865L10.6509 36.6514C7.41477 36.6396 4.72578 36.6631 4.69086 36.71Z" fill="#FF7315"/>
<path d="M20.5547 42.6631V48.6982H26.4914H32.4282V42.6631V36.6279H26.4914H20.5547V42.6631Z" fill="#FF7315"/>
<path d="M36.4455 36.7686C36.4106 36.8506 36.399 39.5576 36.4106 42.7803L36.4455 48.6396L42.4172 48.6748L48.3772 48.6982L48.3539 42.6982L48.319 36.6865L42.4056 36.6514C37.7377 36.6279 36.4805 36.6514 36.4455 36.7686Z" fill="#FF7315"/>
</svg>
