<svg width="21" height="21" viewBox="0 0 21 21" fill="none" xmlns="http://www.w3.org/2000/svg">
<path d="M0.222656 7.3418C0.263672 7.15039 0.297852 6.95898 0.325195 6.76758C0.352539 6.57617 0.386719 6.3916 0.427734 6.21387C0.578125 5.53027 0.820801 4.90137 1.15576 4.32715C1.49072 3.75293 1.89062 3.24707 2.35547 2.80957C2.7793 2.39941 3.29883 2.18408 3.91406 2.16357C4.5293 2.14307 5.04883 2.33789 5.47266 2.74805C5.89648 3.14453 6.31689 3.54785 6.73389 3.95801C7.15088 4.36816 7.55078 4.78516 7.93359 5.20898C8.35742 5.64648 8.55566 6.16943 8.52832 6.77783C8.50098 7.38623 8.27539 7.91602 7.85156 8.36719C7.6875 8.54492 7.51318 8.72266 7.32861 8.90039C7.14404 9.07812 6.96289 9.25586 6.78516 9.43359C6.59375 9.63867 6.49805 9.84717 6.49805 10.0591C6.49805 10.271 6.60059 10.4795 6.80566 10.6846C7.14746 11.0264 7.49268 11.3716 7.84131 11.7202C8.18994 12.0688 8.53516 12.4141 8.87695 12.7559C9.08203 12.9609 9.29053 13.0635 9.50244 13.0635C9.71436 13.0635 9.91602 12.9609 10.1074 12.7559C10.2715 12.5918 10.439 12.4243 10.6099 12.2534C10.7808 12.0825 10.9482 11.915 11.1123 11.751C11.6045 11.2725 12.1719 11.0332 12.8145 11.0332C13.457 11.0332 14.0244 11.2725 14.5166 11.751C14.8857 12.1201 15.2446 12.479 15.5933 12.8276C15.9419 13.1763 16.2939 13.5283 16.6494 13.8838L16.6699 13.9043C17.1484 14.3965 17.3843 14.9707 17.3774 15.627C17.3706 16.2832 17.1211 16.8506 16.6289 17.3291C15.9043 18.0127 15.1079 18.522 14.2397 18.8569C13.3716 19.1919 12.4385 19.3389 11.4404 19.2979C10.5244 19.2705 9.66992 19.0825 8.87695 18.7339C8.08398 18.3853 7.35938 17.8828 6.70312 17.2266C5.97852 16.502 5.25049 15.7739 4.51904 15.0425C3.7876 14.311 3.05273 13.5762 2.31445 12.8379C1.71289 12.2363 1.24121 11.5698 0.899414 10.8384C0.557617 10.1069 0.345703 9.31738 0.263672 8.46973C0.263672 8.44238 0.260254 8.42188 0.253418 8.4082C0.246582 8.39453 0.236328 8.37402 0.222656 8.34668V7.3418ZM11.6865 17.7393C12.4385 17.7256 13.1323 17.5923 13.7681 17.3394C14.4038 17.0864 14.9883 16.707 15.5215 16.2012C15.7129 16.0234 15.812 15.8252 15.8188 15.6064C15.8257 15.3877 15.7334 15.1826 15.542 14.9912C15.1865 14.6357 14.8311 14.2803 14.4756 13.9248C14.1201 13.5693 13.7646 13.2139 13.4092 12.8584C13.2314 12.6807 13.0366 12.5918 12.8247 12.5918C12.6128 12.5918 12.4111 12.6807 12.2197 12.8584C12.042 13.0361 11.8677 13.2104 11.6968 13.3813C11.5259 13.5522 11.3516 13.7266 11.1738 13.9043C10.6953 14.3828 10.1348 14.6221 9.49219 14.6221C8.84961 14.6221 8.28906 14.3828 7.81055 13.9043C7.44141 13.5488 7.07568 13.1899 6.71338 12.8276C6.35107 12.4653 5.99219 12.0996 5.63672 11.7305C5.17188 11.252 4.93604 10.6948 4.9292 10.0591C4.92236 9.42334 5.1582 8.86621 5.63672 8.3877C5.81445 8.19629 5.99219 8.01172 6.16992 7.83398C6.34766 7.65625 6.52539 7.47852 6.70312 7.30078C6.86719 7.13672 6.95264 6.94873 6.95947 6.73682C6.96631 6.5249 6.88086 6.33691 6.70312 6.17285C6.34766 5.80371 5.98877 5.43799 5.62646 5.07568C5.26416 4.71338 4.90527 4.35449 4.5498 3.99902L4.5293 3.97852C4.35156 3.81445 4.15674 3.73242 3.94482 3.73242C3.73291 3.73242 3.54492 3.82129 3.38086 3.99902C2.86133 4.51855 2.47168 5.10645 2.21191 5.7627C1.93848 6.43262 1.79834 7.10938 1.7915 7.79297C1.78467 8.47656 1.9043 9.15332 2.15039 9.82324C2.41016 10.4795 2.79297 11.0742 3.29883 11.6074C4.06445 12.3867 4.8335 13.1626 5.60596 13.9351C6.37842 14.7075 7.1543 15.4766 7.93359 16.2422C8.45312 16.748 9.03076 17.1206 9.6665 17.3599C10.3022 17.5991 10.9756 17.7256 11.6865 17.7393ZM10.8047 0.697266C10.9688 0.710938 11.1362 0.728027 11.3071 0.748535C11.478 0.769043 11.6523 0.799805 11.8301 0.84082C12.459 0.963867 13.0537 1.1416 13.6143 1.37402C14.1748 1.60645 14.6943 1.89014 15.1729 2.2251C15.6514 2.56006 16.1025 2.94629 16.5264 3.38379C16.9365 3.83496 17.3057 4.32715 17.6338 4.86035C18.0439 5.53027 18.3516 6.22754 18.5566 6.95215C18.7617 7.67676 18.8643 8.42871 18.8643 9.20801C18.8779 9.4541 18.813 9.65918 18.6694 9.82324C18.5259 9.9873 18.3379 10.0693 18.1055 10.0693C17.873 10.083 17.6816 10.0112 17.5312 9.854C17.3809 9.69678 17.3057 9.48828 17.3057 9.22852C17.292 8.39453 17.1416 7.59473 16.8545 6.8291C16.5674 6.07715 16.1743 5.40039 15.6753 4.79883C15.1763 4.19727 14.585 3.68457 13.9014 3.26074C13.2178 2.85059 12.459 2.56348 11.625 2.39941C11.4199 2.3584 11.208 2.32764 10.9893 2.30713C10.7705 2.28662 10.5518 2.26953 10.333 2.25586C10.1006 2.24219 9.90918 2.18066 9.75879 2.07129C9.6084 1.96191 9.51953 1.80469 9.49219 1.59961C9.45117 1.4082 9.48193 1.23389 9.58447 1.07666C9.68701 0.919434 9.84766 0.799805 10.0664 0.717773C10.0664 0.704102 10.0698 0.697266 10.0767 0.697266C10.0835 0.697266 10.0938 0.697266 10.1074 0.697266H10.8047ZM20.2793 20.0977L20.2178 20.2617C20.1494 20.3984 20.0503 20.5078 19.9204 20.5898C19.7905 20.6719 19.6504 20.7129 19.5 20.7129C19.4727 20.7129 19.4487 20.7129 19.4282 20.7129C19.4077 20.7129 19.3838 20.7129 19.3564 20.7129C19.1787 20.6855 19.0283 20.6035 18.9053 20.4668C18.7822 20.3301 18.7207 20.1729 18.7207 19.9951C18.7207 19.7627 18.6387 19.5645 18.4746 19.4004C18.3105 19.2363 18.1123 19.1543 17.8799 19.1543C17.6611 19.1543 17.4834 19.0723 17.3467 18.9082C17.21 18.7441 17.1416 18.5596 17.1416 18.3545C17.1553 18.1494 17.2373 17.9717 17.3877 17.8213C17.5381 17.6709 17.7158 17.5957 17.9209 17.5957C18.4678 17.582 18.9634 17.7563 19.4077 18.1187C19.8521 18.481 20.1289 18.9424 20.2383 19.5029C20.2383 19.5166 20.2451 19.5337 20.2588 19.5542C20.2725 19.5747 20.2793 19.5986 20.2793 19.626V20.0977ZM10.3535 3.81445H10.374C11.0303 3.82812 11.6592 3.95801 12.2607 4.2041C12.8486 4.4502 13.3784 4.77832 13.8501 5.18848C14.3218 5.59863 14.7217 6.07715 15.0498 6.62402C15.3643 7.1709 15.5693 7.76562 15.665 8.4082C15.6787 8.54492 15.6924 8.68164 15.7061 8.81836C15.7197 8.95508 15.7266 9.0918 15.7266 9.22852C15.7402 9.47461 15.6753 9.67627 15.5317 9.8335C15.3882 9.99072 15.2002 10.0693 14.9678 10.0693C14.7354 10.083 14.5439 10.0112 14.3936 9.854C14.2432 9.69678 14.168 9.49512 14.168 9.24902C14.1543 8.33301 13.8638 7.52637 13.2964 6.8291C12.729 6.13184 12.0146 5.6875 11.1533 5.49609L11.1328 5.47559C11.0098 5.44824 10.8833 5.42773 10.7534 5.41406C10.6235 5.40039 10.4834 5.39355 10.333 5.39355C10.0732 5.37988 9.86475 5.29785 9.70752 5.14746C9.55029 4.99707 9.47168 4.80566 9.47168 4.57324C9.47168 4.34082 9.55371 4.15625 9.71777 4.01953C9.88184 3.88281 10.0938 3.81445 10.3535 3.81445H10.374C11.0303 3.82812 11.6592 3.95801 12.2607 4.2041C12.8486 4.4502 13.3784 4.77832 13.8501 5.18848C14.3218 5.59863 14.7217 6.07715 15.0498 6.62402C15.3643 7.1709 15.5693 7.76562 15.665 8.4082C15.6787 8.54492 15.6924 8.68164 15.7061 8.81836C15.7197 8.95508 15.7266 9.0918 15.7266 9.22852C15.7402 9.47461 15.6753 9.67627 15.5317 9.8335C15.3882 9.99072 15.2002 10.0693 14.9678 10.0693C14.7354 10.083 14.5439 10.0112 14.3936 9.854C14.2432 9.69678 14.168 9.49512 14.168 9.24902C14.1543 8.33301 13.8638 7.52637 13.2964 6.8291C12.729 6.13184 12.0146 5.6875 11.1533 5.49609L11.1328 5.47559C11.0098 5.44824 10.8833 5.42773 10.7534 5.41406C10.6235 5.40039 10.4834 5.39355 10.333 5.39355C10.0732 5.37988 9.86475 5.29785 9.70752 5.14746C9.55029 4.99707 9.47168 4.80566 9.47168 4.57324C9.47168 4.34082 9.55371 4.15625 9.71777 4.01953C9.88184 3.88281 10.0938 3.81445 10.3535 3.81445Z" fill="#EB6C2D"/>
</svg>
