<svg width="23" height="23" viewBox="0 0 23 23" fill="none" xmlns="http://www.w3.org/2000/svg">
<path d="M22.2021 12.4133C22.1735 12.6138 22.1449 12.8143 22.1162 13.0148C22.0876 13.2153 22.0589 13.4159 22.0303 13.6164C21.8584 14.6333 21.5648 15.5858 21.1494 16.4738C20.734 17.3618 20.1969 18.1926 19.5381 18.966C19.5094 18.9946 19.488 19.0197 19.4736 19.0412C19.4593 19.0627 19.445 19.0806 19.4307 19.0949H19.4092C19.4092 19.1092 19.4092 19.12 19.4092 19.1271C19.4092 19.1343 19.402 19.145 19.3877 19.1594C19.4307 19.1594 19.4665 19.1629 19.4951 19.1701C19.5238 19.1773 19.5524 19.1808 19.5811 19.1808C19.7386 19.1808 19.8997 19.1808 20.0645 19.1808C20.2292 19.1808 20.3903 19.1808 20.5479 19.1808C20.7913 19.1808 20.9919 19.2596 21.1494 19.4172C21.307 19.5747 21.3929 19.7681 21.4072 19.9972C21.4215 20.2121 21.3535 20.409 21.2031 20.5881C21.0527 20.7671 20.863 20.8638 20.6338 20.8781C20.2757 20.8781 19.9176 20.8781 19.5596 20.8781C19.2015 20.8781 18.8434 20.8638 18.4854 20.8351C17.8981 20.7778 17.3968 20.5236 16.9814 20.0724C16.5661 19.6213 16.3441 19.1021 16.3154 18.5148C16.3011 18.1997 16.2939 17.8846 16.2939 17.5695C16.2939 17.2544 16.2939 16.9393 16.2939 16.6242C16.3083 16.3807 16.3942 16.1766 16.5518 16.0119C16.7093 15.8472 16.9027 15.7648 17.1318 15.7648C17.3753 15.7648 17.5794 15.8436 17.7441 16.0011C17.9089 16.1587 17.9912 16.3592 17.9912 16.6027C18.0055 16.8032 18.0091 17.0038 18.002 17.2043C17.9948 17.4048 17.9912 17.6125 17.9912 17.8273V18.1066C18.0485 18.0636 18.0915 18.0278 18.1201 17.9992C18.1488 17.9706 18.1774 17.9347 18.2061 17.8918C18.8219 17.1756 19.3161 16.4022 19.6885 15.5715C20.0609 14.7407 20.3044 13.8527 20.4189 12.9074C20.4906 12.2629 20.5049 11.6327 20.4619 11.0168C20.4189 10.4009 20.3151 9.79933 20.1504 9.21209C19.9857 8.62485 19.7673 8.05909 19.4951 7.51482C19.2087 6.97055 18.8577 6.4406 18.4424 5.92498C17.7119 5.02263 16.8776 4.30291 15.9395 3.7658C15.0013 3.22869 13.9593 2.8742 12.8135 2.70232C12.1403 2.58774 11.4814 2.54477 10.8369 2.57341C10.1924 2.58774 9.56217 2.67368 8.94629 2.83123C8.3304 2.98878 7.736 3.21078 7.16309 3.49724C6.59017 3.79802 6.03158 4.16326 5.4873 4.59295C4.58496 5.30909 3.85807 6.13982 3.30664 7.08513C2.75521 8.03045 2.39355 9.08318 2.22168 10.2433C2.12142 10.9165 2.07845 11.5754 2.09277 12.2199C2.12142 12.8644 2.21094 13.4911 2.36133 14.0998C2.51172 14.7085 2.73014 15.3065 3.0166 15.8937C3.31738 16.4666 3.67546 17.0252 4.09082 17.5695C4.82129 18.4719 5.65918 19.1952 6.60449 19.7394C7.5498 20.2837 8.59538 20.6489 9.74121 20.8351C9.97038 20.8781 10.2174 20.9103 10.4824 20.9318C10.7474 20.9533 11.0231 20.964 11.3096 20.964C11.8825 20.964 12.4447 20.9139 12.9961 20.8136C13.5475 20.7134 14.0811 20.5702 14.5967 20.384L14.5322 20.4054C14.8187 20.2909 15.0765 20.298 15.3057 20.4269C15.5348 20.5558 15.6781 20.7564 15.7354 21.0285C15.7783 21.229 15.7461 21.4188 15.6387 21.5978C15.5312 21.7769 15.3701 21.9094 15.1553 21.9953C14.7686 22.1385 14.3747 22.2603 13.9736 22.3605C13.5726 22.4608 13.1644 22.5324 12.749 22.5754C11.7607 22.7043 10.7868 22.7114 9.82715 22.5969C8.86751 22.4823 7.92936 22.2245 7.0127 21.8234C6.12467 21.4367 5.32259 20.9712 4.60645 20.4269C3.8903 19.897 3.26009 19.2918 2.71582 18.6115C2.17155 17.9312 1.72038 17.1828 1.3623 16.3664C1.00423 15.5357 0.732096 14.6405 0.545898 13.6808C0.517253 13.4803 0.492188 13.2762 0.470703 13.0685C0.449219 12.8608 0.424154 12.6567 0.395508 12.4562V11.0812C0.395508 11.0526 0.399089 11.0204 0.40625 10.9845C0.413411 10.9487 0.416992 10.9165 0.416992 10.8879C0.459961 10.6301 0.495768 10.3758 0.524414 10.1252C0.55306 9.87452 0.596029 9.62745 0.65332 9.38396C0.868164 8.30974 1.24056 7.30714 1.77051 6.37615C2.30046 5.43084 2.94857 4.59295 3.71484 3.86248C4.48112 3.13201 5.34408 2.51612 6.30371 2.01482C7.26335 1.52784 8.28027 1.19841 9.35449 1.02654C9.55501 0.997894 9.7627 0.969248 9.97754 0.940601C10.1924 0.911957 10.4001 0.88331 10.6006 0.854664H11.9756C11.9899 0.854664 12.0078 0.858246 12.0293 0.865406C12.0508 0.872568 12.0687 0.88331 12.083 0.897633C12.4411 0.954926 12.8027 1.00147 13.168 1.03728C13.5332 1.07309 13.8877 1.14828 14.2314 1.26287C15.3057 1.57797 16.2725 2.0005 17.1318 2.53045C18.0055 3.04607 18.7682 3.66554 19.4199 4.38884C20.0716 5.11215 20.6123 5.92498 21.042 6.82732C21.4717 7.74399 21.8011 8.76091 22.0303 9.8781C22.0732 10.0643 22.1055 10.2612 22.127 10.4689C22.1484 10.6766 22.1735 10.8807 22.2021 11.0812V12.4133ZM10.4287 10.0715V8.41716C10.4287 8.15935 10.5111 7.94451 10.6758 7.77263C10.8405 7.60076 11.0446 7.51482 11.2881 7.51482C11.5316 7.51482 11.7357 7.60076 11.9004 7.77263C12.0651 7.94451 12.1475 8.15935 12.1475 8.41716C12.1475 8.88982 12.1475 9.36248 12.1475 9.83513C12.1475 10.3078 12.1475 10.7733 12.1475 11.2316C12.1475 11.2889 12.1582 11.3426 12.1797 11.3928C12.2012 11.4429 12.2334 11.4894 12.2764 11.5324C12.4912 11.7616 12.7096 11.9872 12.9316 12.2092C13.1536 12.4312 13.3792 12.6567 13.6084 12.8859C13.68 12.9575 13.7373 13.0435 13.7803 13.1437C13.8232 13.244 13.8447 13.3514 13.8447 13.466C13.8447 13.5376 13.8376 13.6056 13.8232 13.6701C13.8089 13.7345 13.7874 13.7954 13.7588 13.8527V13.8312C13.6872 13.9888 13.5762 14.1141 13.4258 14.2072C13.2754 14.3003 13.1143 14.3325 12.9424 14.3039C12.8421 14.2896 12.7419 14.2609 12.6416 14.2179C12.5413 14.175 12.4554 14.1177 12.3838 14.0461C12.0973 13.7883 11.8145 13.5161 11.5352 13.2297C11.2559 12.9432 10.973 12.6567 10.6865 12.3703C10.6149 12.2987 10.554 12.2092 10.5039 12.1017C10.4538 11.9943 10.4287 11.8761 10.4287 11.7472C10.4287 11.7472 10.4287 11.7437 10.4287 11.7365C10.4287 11.7293 10.4287 11.7258 10.4287 11.7258C10.4287 11.4536 10.4287 11.1779 10.4287 10.8986C10.4287 10.6193 10.4287 10.3436 10.4287 10.0715Z" fill="#EB6C2D"/>
</svg>
