<svg width="18" height="21" viewBox="0 0 18 21" fill="none" xmlns="http://www.w3.org/2000/svg">
<g clip-path="url(#clip0_2632_6340)">
<path d="M0 4.50553C0.0365385 4.31605 0.0692308 4.12619 0.11 3.9375C0.568462 1.81313 2.41885 0.278237 4.56577 0.26732C6.95654 0.255235 9.34769 0.254065 11.7388 0.26732C14.2531 0.281356 16.2923 2.3527 16.3058 4.89617C16.3162 6.79637 16.3085 8.69656 16.3077 10.5968C16.3077 11.0849 15.9812 11.4338 15.5338 11.4311C15.0881 11.4283 14.7704 11.0798 14.7704 10.5858C14.7692 8.73087 14.7704 6.87629 14.7696 5.02132C14.7688 3.17414 13.4277 1.82093 11.5977 1.82015C9.28346 1.81937 6.96962 1.8182 4.65539 1.82054C3.13769 1.8221 1.89769 2.84393 1.59808 4.34295C1.55654 4.55114 1.54154 4.76752 1.54154 4.98038C1.53808 8.4759 1.53731 11.9714 1.54 15.4669C1.54154 17.2626 2.89577 18.6272 4.67346 18.6291C6.52615 18.6315 8.37846 18.6279 10.2312 18.6307C10.8377 18.6315 11.215 19.2166 10.9612 19.7484C10.8496 19.9823 10.6496 20.0993 10.4235 20.1862H4.19231C4.15 20.1741 4.10885 20.1558 4.06577 20.1511C2.13731 19.925 0.527308 18.4521 0.113077 16.5316C0.0711538 16.3379 0.0376923 16.1414 0 15.9457C0 12.1324 0 8.31878 0 4.50553Z" fill="#EB6C2D"/>
<path d="M14.8849 20.1851C14.7549 20.1555 14.6237 20.1297 14.4953 20.0954C14.0014 19.9644 13.5707 19.7192 13.2091 19.3539C12.2976 18.4334 11.3845 17.5149 10.4783 16.5894C9.62143 15.7138 9.13489 14.649 8.92527 13.4424C8.81681 12.8178 8.68296 12.1976 8.56258 11.5754C8.44796 10.9839 8.90681 10.518 9.49027 10.6354C10.2933 10.7972 11.1003 10.9426 11.8972 11.1313C12.8787 11.3633 13.7295 11.8557 14.446 12.5738C15.361 13.4904 16.2703 14.4132 17.1783 15.3368C17.6114 15.7769 17.876 16.3063 17.9664 16.9231C17.9718 16.9609 17.9887 16.9968 17.9999 17.0334V17.6561C17.9876 17.6989 17.9722 17.7414 17.9641 17.7851C17.7549 18.9188 17.1091 19.6744 16.0345 20.0518C15.8618 20.1126 15.6783 20.1418 15.4999 20.1855H14.8845L14.8849 20.1851ZM10.2953 12.3999C10.3426 12.6479 10.3903 12.8689 10.4264 13.0915C10.5757 14.0093 10.9195 14.8315 11.5776 15.4993C12.4822 16.4175 13.3857 17.3371 14.2968 18.249C14.8087 18.7617 15.5941 18.7543 16.0922 18.249C16.5833 17.7504 16.5941 16.9578 16.0953 16.4467C15.1722 15.5013 14.2399 14.5648 13.308 13.6284C12.4833 12.8003 11.4203 12.564 10.2953 12.3999Z" fill="#EB6C2D"/>
<path d="M8.4236 4.8877C8.4236 4.65417 8.42168 4.42103 8.42399 4.1875C8.42899 3.71694 8.76014 3.37152 9.19976 3.37503C9.63245 3.37854 9.95783 3.72045 9.96129 4.18165C9.96437 4.59647 9.96014 5.01128 9.96245 5.4261C9.96629 6.13877 10.4574 6.63857 11.1582 6.64247C11.5682 6.64481 11.9782 6.64091 12.3882 6.64364C12.854 6.64676 13.1951 6.98087 13.1924 7.42688C13.1898 7.86392 12.8513 8.20037 12.3963 8.19764C11.8332 8.19413 11.2651 8.22142 10.7082 8.15592C9.4563 8.00894 8.46283 6.86548 8.42668 5.5875C8.42014 5.35436 8.42591 5.12084 8.42591 4.88731C8.42553 4.88731 8.42476 4.88731 8.42437 4.88731L8.4236 4.8877Z" fill="#EB6C2D"/>
<path d="M6.19258 15.1262C6.6022 15.1262 7.01181 15.1242 7.42181 15.1265C7.8895 15.1293 8.23066 15.4583 8.23104 15.9035C8.23104 16.348 7.88989 16.6801 7.42258 16.6817C6.60335 16.684 5.78374 16.684 4.9645 16.6817C4.4972 16.6801 4.15527 16.3488 4.15527 15.9043C4.15527 15.4603 4.49758 15.1289 4.96374 15.1262C5.37335 15.1238 5.78297 15.1258 6.19297 15.1258L6.19258 15.1262Z" fill="#EB6C2D"/>
<path d="M5.92199 8.90726C6.24853 8.90726 6.57468 8.90453 6.90122 8.90804C7.35353 8.91272 7.69084 9.24644 7.69161 9.68426C7.69237 10.1221 7.35507 10.4597 6.90353 10.4628C6.25084 10.4671 5.59776 10.4667 4.94507 10.4628C4.49353 10.4601 4.15507 10.1232 4.1543 9.6866C4.15391 9.24995 4.49237 8.91311 4.94276 8.90804C5.2693 8.90453 5.59545 8.90726 5.92199 8.90726Z" fill="#EB6C2D"/>
<path d="M5.7247 12.017C5.99355 12.017 6.26239 12.0135 6.53086 12.0178C6.97009 12.0248 7.30393 12.3589 7.30701 12.7886C7.31009 13.2264 6.97316 13.5679 6.52393 13.5718C5.99278 13.5765 5.46163 13.5769 4.93047 13.5718C4.49124 13.5675 4.15701 13.2299 4.15432 12.801C4.15124 12.364 4.48932 12.0237 4.93739 12.0174C5.1997 12.0139 5.46201 12.0166 5.72432 12.0166L5.7247 12.017Z" fill="#EB6C2D"/>
</g>
<defs>
<clipPath id="clip0_2632_6340">
<rect width="18" height="20" fill="white" transform="translate(0 0.21875)"/>
</clipPath>
</defs>
</svg>
