<svg width="416" height="427" viewBox="0 0 416 427" fill="none" xmlns="http://www.w3.org/2000/svg">
<path d="M226.002 16.4C213.602 25.3333 176.402 52.1333 143.336 75.8667C110.402 99.6 82.1358 120.133 80.6691 121.467C78.1358 124 78.8025 124 112.269 124H146.402L214.136 97.8667C251.469 83.4667 286.669 70 292.269 67.7333L302.536 63.8667L278.669 31.8667C259.869 6.93333 254.002 -6.4671e-06 251.602 -6.4671e-06C250.002 -6.4671e-06 238.802 7.06666 226.002 16.4Z" fill="black"/>
<path d="M256.401 95.8667C216.668 110.267 183.734 122.533 183.201 123.067C182.668 123.6 219.868 124 265.734 124C311.734 124 349.334 123.467 349.334 122.933C349.334 121.067 330.668 71.4667 329.601 70.6667C329.068 70.1333 296.134 81.6 256.401 95.8667Z" fill="black"/>
<path d="M15.8685 105.334C9.73518 107.201 5.60185 110.667 3.06852 116.401C0.801849 121.734 0.668515 129.734 0.268515 268.401C0.00184857 397.867 0.135182 415.201 2.00185 418.667C6.40185 427.201 -6.53148 426.667 197.469 426.667H382.935L387.469 422.134L392.002 417.601V379.601V341.601L368.402 341.067C344.935 340.667 344.535 340.667 335.735 336.401C306.402 322.534 296.269 286.134 314.269 259.067C319.869 250.667 326.402 245.201 336.935 240.267C344.269 236.801 345.869 236.667 368.402 236.267L392.002 235.734V188.134C392.002 136.934 392.002 137.067 384.935 133.067C382.669 131.734 343.602 131.201 204.535 130.667C14.1352 130.001 22.6685 130.267 22.6685 123.467C22.6685 117.867 24.8018 117.334 45.3352 117.334H64.8019L74.0019 110.667L83.2019 104.001L51.3352 104.134C33.7352 104.134 17.7352 104.667 15.8685 105.334Z" fill="black"/>
<path d="M356.667 106.935C359.734 116.935 358.934 116.668 378.534 117.335C395.867 118.001 396.267 118.001 399.467 121.735L402.667 125.468V174.135C402.667 200.801 403.067 222.668 403.734 222.668C404.267 222.668 407.067 221.201 410.001 219.601L415.334 216.535L415.734 170.135C416.001 124.935 416.001 123.468 413.201 117.735C411.601 114.401 407.867 110.001 404.934 107.868L399.601 104.001H377.734H355.867L356.667 106.935Z" fill="black"/>
<path d="M403.068 239.333L390.802 249.333H370.802C346.668 249.333 340.402 251.067 330.402 260.933C314.402 276.667 314.535 300.133 330.668 316.267C340.802 326.4 346.402 328 371.735 328H390.935L403.468 317.6L416.002 307.333V268.267C416.002 246.933 415.868 229.333 415.602 229.333C415.335 229.333 409.735 233.867 403.068 239.333ZM367.735 271.467C374.402 275.333 376.668 279.867 376.668 289.067C376.668 297.333 376.535 297.733 371.068 302.8C366.002 307.467 364.802 308 358.402 308C346.268 308 338.668 300.533 338.668 288.667C338.668 281.2 341.468 275.867 347.468 271.867C352.268 268.8 362.935 268.533 367.735 271.467Z" fill="black"/>
<path d="M409.068 326.134L402.668 329.334V366.667C402.668 407.067 402.668 406.934 409.601 401.334C415.601 396.667 416.135 393.6 415.735 357.2L415.335 322.934L409.068 326.134Z" fill="black"/>
</svg>
