<svg width="32" height="32" viewBox="0 0 32 32" fill="none" xmlns="http://www.w3.org/2000/svg">
<g clip-path="url(#clip0_2632_5974)">
<path d="M0 5.63032C0.0803306 5.2766 0.143952 4.91849 0.244848 4.56977C1.01988 1.88585 3.51077 0.0283292 6.37118 0.00892137C8.1166 -0.00297379 9.86267 -0.00297379 11.6081 0.00892137C15.1304 0.0327117 17.9812 2.79114 17.9889 6.21819C18.0037 12.7474 18.0037 19.2766 17.9889 25.8058C17.9818 28.9292 15.5803 31.5355 12.3889 31.9449C12.3279 31.953 12.2694 31.9812 12.2103 32H5.7838C5.72404 31.9812 5.6662 31.9543 5.60515 31.9449C2.87262 31.5048 1.08543 29.9997 0.246776 27.436C0.13367 27.0917 0.0809732 26.7298 0 26.3761C0 19.4606 0 12.5458 0 5.63032ZM2.57058 16.0054C2.57058 19.2221 2.56865 22.4394 2.57058 25.6561C2.57186 27.8599 4.26074 29.4964 6.53377 29.5001C8.1828 29.5026 9.83182 29.5033 11.4802 29.5001C13.7301 29.4958 15.4215 27.8536 15.4222 25.6674C15.4248 19.2227 15.4248 12.7787 15.4222 6.33401C15.4215 4.14906 13.7275 2.51003 11.4757 2.5069C9.84853 2.5044 8.22071 2.50565 6.59354 2.5069C4.23503 2.50753 2.57122 4.12464 2.57122 6.41728C2.57058 9.61332 2.57122 12.8094 2.57122 16.006L2.57058 16.0054Z" fill="white"/>
<path d="M32 16.2446C31.7464 16.9769 31.2167 17.2542 30.4409 17.2304C29.4328 17.1985 28.4227 17.2224 27.3927 17.2224C27.3509 17.3632 27.3215 17.5004 27.2697 17.6296C27.096 18.0643 26.9374 18.5063 26.7306 18.9258C26.5014 19.3917 26.4814 19.3819 26.8462 19.7395C27.6263 20.503 28.4152 21.2579 29.1842 22.0313C29.8869 22.7372 29.5858 23.8491 28.6345 24.0928C28.1485 24.2171 27.7344 24.0708 27.384 23.7267C26.5607 22.9191 25.7312 22.1176 24.9148 21.3039C24.758 21.1477 24.6568 21.1373 24.4463 21.239C23.8267 21.5396 23.1833 21.7937 22.505 22.0851C22.505 23.2528 22.5075 24.4945 22.5037 25.7362C22.5025 26.2768 22.2532 26.6766 21.7454 26.8964C20.9521 27.2393 20.0264 26.6907 20.0152 25.8396C19.9927 24.17 19.9977 22.4996 20.0139 20.8293C20.0202 20.1522 20.5755 19.6844 21.3219 19.666C22.9097 19.6268 24.2814 18.6478 24.8017 17.1826C25.62 14.8774 23.8742 12.4019 21.3825 12.3352C20.4824 12.3113 20.0077 11.8355 20.0071 10.9545C20.0064 9.42682 20.0064 7.89917 20.0071 6.37153C20.0071 5.54985 20.5161 4.99634 21.2638 5.00002C22.0096 5.0043 22.5043 5.55597 22.505 6.38684C22.5056 7.58752 22.505 8.78882 22.505 9.93195C23.2589 10.2369 23.9754 10.5265 24.7493 10.84C24.7724 10.8191 24.8555 10.7469 24.9335 10.671C25.7662 9.85786 26.5938 9.04047 27.4314 8.23225C27.8393 7.83856 28.3828 7.75774 28.8693 7.98979C29.3341 8.21144 29.6008 8.66942 29.5639 9.18803C29.5396 9.53213 29.3647 9.80031 29.1204 10.0373C28.3016 10.8345 27.4895 11.6384 26.665 12.4307C26.5132 12.5764 26.5032 12.6688 26.6026 12.8648C26.9092 13.4722 27.1703 14.101 27.4745 14.7775H29.1604C29.587 14.7775 30.0155 14.7984 30.4403 14.7733C31.2155 14.7267 31.747 15.0218 31.9988 15.7554V16.244L32 16.2446Z" fill="white"/>
<path d="M9.66243 15.4206C9.66243 16.7959 9.6671 18.1707 9.65777 19.546C9.6566 19.7521 9.7161 19.8415 9.89695 19.9255C11.4493 20.648 12.2986 22.4386 11.9037 24.1255C11.4819 25.926 9.97512 27.1082 8.2507 26.9922C6.69313 26.8867 5.32515 25.5983 5.05564 23.9817C4.77096 22.2744 5.59817 20.6097 7.0904 19.9298C7.29166 19.8378 7.33308 19.7274 7.33249 19.5219C7.32724 16.7824 7.32724 14.0422 7.33016 11.3026C7.33133 10.3931 8.08328 9.79278 8.8644 10.0667C9.34859 10.2364 9.65893 10.6924 9.66068 11.2662C9.66477 12.6514 9.66185 14.0366 9.66243 15.4225V15.4206ZM9.66127 23.3092C9.66418 22.6323 9.14266 22.0751 8.50213 22.0714C7.86044 22.0677 7.33308 22.6187 7.33016 23.295C7.32666 23.9719 7.84877 24.5296 8.4893 24.5327C9.12983 24.5364 9.65835 23.9836 9.66185 23.3086L9.66127 23.3092Z" fill="white"/>
</g>
<defs>
<clipPath id="clip0_2632_5974">
<rect width="32" height="32" fill="white"/>
</clipPath>
</defs>
</svg>
